<mxfile host="app.diagrams.net" modified="2022-10-24T14:53:31.470Z" agent="5.0 (Macintosh; Intel Mac OS X 10_15_7) AppleWebKit/537.36 (KHTML, like Gecko) Chrome/105.0.0.0 Safari/537.36" etag="yZQER7BHe10Hr7Qj_HCh" version="20.4.0" type="github">
  <diagram id="Ad2xA0-WZPl7Sv0jy0NY" name="페이지-1">
    <mxGraphModel dx="1188" dy="543" grid="1" gridSize="10" guides="1" tooltips="1" connect="1" arrows="1" fold="1" page="1" pageScale="1" pageWidth="827" pageHeight="1169" math="0" shadow="0">
      <root>
        <mxCell id="0" />
        <mxCell id="1" parent="0" />
        <mxCell id="Ks9KbmvAjfP1q3GIgaZF-7" value="&lt;blockquote style=&quot;margin: 0 0 0 40px; border: none; padding: 0px;&quot;&gt;&lt;/blockquote&gt;&lt;b&gt;&lt;br&gt;&lt;/b&gt;" style="text;html=1;align=left;verticalAlign=middle;whiteSpace=wrap;rounded=0;fillStyle=auto;fontFamily=Helvetica;fontSize=12;fillColor=#FFFFFF;shadow=0;sketch=0;" vertex="1" parent="1">
          <mxGeometry x="80" y="351" width="390" height="219" as="geometry" />
        </mxCell>
        <mxCell id="Ks9KbmvAjfP1q3GIgaZF-8" value="&lt;font color=&quot;#333333&quot;&gt;∙&amp;nbsp;&lt;b style=&quot;background-color: initial;&quot;&gt;버&amp;nbsp; 스&lt;br&gt;&lt;/b&gt;&amp;nbsp; &amp;nbsp;&amp;nbsp;간선 301, 342, 472 / 지선 3011, 4412&lt;br&gt;&amp;nbsp; &amp;nbsp;&amp;nbsp;영동고교앞 정류장 하차 (도보 2분)&lt;br&gt;&lt;br&gt;∙&amp;nbsp;&lt;b style=&quot;&quot;&gt;지하철 (도보 8분)&lt;br&gt;&lt;/b&gt;&amp;nbsp; &amp;nbsp; 7호선∙분당선 강남구청역 3번 출구 (셔틀버스 운행, 10분 간격)&lt;br&gt;&amp;nbsp; &amp;nbsp;&amp;nbsp;&lt;/font&gt;&lt;span style=&quot;color: rgb(51, 51, 51);&quot;&gt;3-1번 출구 (도보 5분)&lt;/span&gt;&lt;font color=&quot;#333333&quot;&gt;&lt;br&gt;&lt;b style=&quot;&quot;&gt;&lt;br&gt;&lt;/b&gt;&lt;b&gt;∙ 셔틀버스&lt;/b&gt;&lt;br&gt;&amp;nbsp; &amp;nbsp; 강남구청역 3번 출구 (7호선, 분당선) 앞&lt;b style=&quot;&quot;&gt;&lt;br&gt;&lt;/b&gt;&lt;b&gt;&lt;br&gt;&lt;/b&gt;&lt;/font&gt;&lt;blockquote style=&quot;margin: 0 0 0 40px; border: none; padding: 0px;&quot;&gt;&lt;/blockquote&gt;&lt;font color=&quot;#333333&quot;&gt;∙&amp;nbsp;&lt;b style=&quot;background-color: initial;&quot;&gt;주&amp;nbsp; 차&lt;br&gt;&lt;/b&gt;&amp;nbsp; &amp;nbsp;&amp;nbsp;90분 무료주차&lt;br&gt;&amp;nbsp; &amp;nbsp;&amp;nbsp;&lt;span style=&quot;background-color: initial;&quot;&gt;※ 주차공간이 협소하오니 가급적 대중교통을 이용해 주시기 바랍니다.&lt;/span&gt;&lt;/font&gt;&lt;b&gt;&lt;br&gt;&lt;/b&gt;" style="text;html=1;align=left;verticalAlign=middle;whiteSpace=wrap;rounded=0;fillStyle=auto;fontFamily=Helvetica;fontSize=12;fillColor=none;shadow=0;sketch=0;" vertex="1" parent="1">
          <mxGeometry x="110" y="346" width="350" height="224" as="geometry" />
        </mxCell>
        <mxCell id="Ks9KbmvAjfP1q3GIgaZF-12" value="" style="shape=image;verticalLabelPosition=bottom;labelBackgroundColor=default;verticalAlign=top;aspect=fixed;imageAspect=0;image=data:image/png,iVBORw0KGgoAAAANSUhEUgAAAYYAAAEICAYAAABbOlNNAAAAAXNSR0IArs4c6QAAIABJREFUeF7snQd8FMUXx19yKSQ0BZFqBRVREQuCoiB2QERFsIJdwQYqglhBVAQU6QhKURRU7BVUbGD702zYe0dAenou/8/37b5jcwQIIYTcZdYPJrnbnZ15M/N+r09CQUFBgbjLUcBRoFxTgG2akJAQ6WNeXp48OnWKPDR2jCQmJsr7c+dJanq6FEiCFOj/E4RnEu0Z2+V+E1F/luuxu86VPQUSHDCUPdHdGx0FtpYCDhi2lmLu/m2hgAOGbaGee9ZRoIwo4IChjAjtXqMUcMDgFoKjQAxQwAFDDExSHHXRAUMcTaYbSvxSwAFD/M5teRyZA4byOCuuT44CURRwwOCWRFlSwAFDWVLbvctRoIQUcMBQQsK5x0pEAQcMJSKbe8hRoGwp4IChbOld0d/mgKGirwA3/piggAOGmJimuOmkA4a4mUo3kHimgAOGeJ7d8jc2Bwzlb05cjxwFNqKAAwa3KMqSAg4YypLa7l2OAiWkgAOGEhLOPVYiCjhgKBHZ3EOOAmVLAQcMZUvviv42BwwVfQW48ccEBRwwxMQ0xU0nHTDEzVS6gcQzBRwwxPPslr+xOWAof3PieuQoUGLns0iChANltynVvaFY94ZmXdltt8g2RwEHDG59bJECJq2Gw2E9EyA/P19CoZDW+8/NzZXU1FT9ne/4Ozk5OfLTGg8+E2zDvs/KypJKlSpJdna2pKSkFDp7YIsdrAA3bEpjGD92jIQC5zEADJH50qNWPFhILAIdbK7ycnL1TAf+6TwlJUluTo6sW7dOdt55Z6+9xMQIlQvCYf09IZQonAuRlJQkq1at0p9VqlTRNvjHPPKTdplz5pafzHV6erreH9bvQ/LrL7/o93vvvbeuLe7LyMyQzKwsqVmzZuQ91gnWIu26a/tQwAHD9qFr3LTKxreNyqDWrFkjX3zxhaxYsUKOOOIIqVOnTmTTsuFhBAsWLJC1a9fK4YcfLtWrV9cNnJGRocwAELELRsB3MJVatWopYwh+n5OTo8zFXRJh9kYLO6gHYICGc+fNk9S0dAUCAwY9gyshQcJhDuzhV+87ngW8dT5XrZZp06bJn3/+KY0bN5YLLrhA7wMIunbpItOnT5ek5GTJ99fB33//rXOaXrmyABAzn31GGjRoIL/99pvO74knnij/+9//ZK+99pL69etrWx9//LHsuuuu0qhRI/n1119lyJAhMm7cOF0rEi6QW265RWD0NWrUkMWLF8ttt90mBxxwgHzyySey5Ouv5Nxzz90IcNya2L4UcMCwfekbF62bZPnLL7/I7bffLvvtt59KcWz4Tp06yZlnnqmb/N9//5UbbrhBDjnkEN3k7733nnTv3l2OP/54GTBggFx++eXKLGBOgA0XIDNr1ix9js8MQOKCcKU4iM1pDMUBhoJwvkroXCblA+TX9+otrVq1kgMPPFDeeecdAYyvv/56ZeiXXHKJTJo0SVJ8MEeLGDt2rLRo0UL/0c5DEyfofP/zzz8K4u3bt5cxY8ZI8+bN5aijjtJ1MXLkSL2Hv3///Xdtc9CgQdqf1199Tb7++mu5+uqr9d3r16+Xu+66S0aPHi0fffSRzF+4QPsTrR1ECyylSGrXlDuPwa2BLVHAQAGJDibfu3dvOfjgg3WjIuFfd911KuHB8C+66CLdxHwPI8vMzIx8j0T6ww8/yIUXXqjSKu3xD8mxZcuWql3Y5rd3mvlpS32sCN+XFBj0kM8EUek+mrl+9dVXMmH8Q3LvvfdK5SpVJDsrS+d4woQJOkdXXnmlPPzww/qcmvcSE+X+YcN0ro499ljVRsaPHyf7NW4sf/zxh1StWlU6duwo999/vz6DFshz7777rmqafMY49thjDxk8eLD2ae77c+X999/XNZQYCskfv/8u/fv3l0cffVSB6tvvv5OrrrqqkCkJUAC4TLioCPNf1mN0GkNZUzxG37dw4UJ58cUXZeDAgRH7P8CweOEiBQBMSlOmTJGhw4bpCDPWr1dzw6KFC9WshFSKBPrYY48pQ0H6DCWF5MKLLlJTBtIrF34Gd21MgW0FBvF9QGabRzpnTt97513p169fBKhvvPFG/bt+gwZyxumn63ygEfIPZvzAAw+o9A8wANwAO9oD2iRa4imnnKKmIkBgn3320XnFtNShQwc5+uij9T7ABmBITkmRvNxcufXWW2XlypUKJEuWLFGgwhT1+eefy9wP5kU0BjOFMQbzcQXPwXbrpvQo4ICh9GgZty3BRF555RVV9TEdwSz0oHmcfwUiOdnZ8uSTT8pOO+0k7dq1Uzqw6ZEIYR5mOhoxYoSalQ5u1kzv+ejDD+WzLz5XwIj2JTjnYuHlVFJgUHWBKwAMxmDR4m7tf4uafpD2Afjzzz9fJk+erHN59tln6++VK1dWbQEwx+QHKDBfAPq6tWulT58+smzZMgWX008/XQUEtEY0QeYf8xMmQ/Mj8S5MkmglObm52tbSpUvV1wQgrF69WgEFU9K/y5fJNddcExFGLAAiGOgQtxtvBw7MAcMOJH6svJrNDfNo2rSptG3bNtJtgCI5lKRMY/y4cSohnnDCCaoR/PTjj2pewI4MQ8B8gDSIWYGNzuf33XefnNK+nUqgbHiuSGRMKKSfucgT4+te1JddJXU+B9cc9H1o3Hj55ptvNBoIn1G3bt2kw6mnKghceumlMnXqVGXuMHF+Ahb777+/OoxTkpNl/Pjxcuihh8r333+v89z+1FNl2JAhavrBF0WfMQmxLpjnH3/8UV5++WV5YPhw+d8nn+jzRB6hVeK85j0AEdrHQQcdJKvXrtF+sA5YM2aOcprC9uUeDhi2L31jvnVz8s2YMUMjhs444wzdnBZeisYAE3niiSekbt26GpXCpsXshESKMxFpcOjQoUqLyy67TG3YXDgcH570SCQaCakY5gMDMD9DzBOwlAawLRoDUUmhRC8iiYv5MSAmKghfAyYeGPFuu+2m9zEP+Iww/RGVxLVwwQKZOXOm/PXXXzqHqSkpytgPaNJE/lvxn7bb6fROsnDBQr0HDcT63eroVmpuZC088sgjcvPNN0slIpvy82V9RoYGJ+CvAlyWL1+uQQifffaZ/PXP33LttdduZDoyB3opkdc1E0UBBwxuSWyRAoAAUh/Mg8iioONv2dJ/dRPDXNAQCHfE1IQWkZmRoRIiIY/33HOPfvbg8OFqk0bb+Pbbb+XKnj22+H53w7aFqyoYbIqI4QJl1rXr1NGQVOYWJzC/M5cznnxSTYJ8jqYHsGP7Z86vuPxyBYamBx0kf/7xp1StVlU1g9S0NNUaV6/4T7XEn3/+WcG+foP60nDvhrpOmh/ZcoP2k5srN910k5qpdtt9d7nt1lsVmIh0OuSwQ9UJjibhtMey2wkOGMqO1jH9JvIWevbsqY5D4tjZuDifH54wUe3JmAkAjccff1w3MWCChkF0yaJFi9Qhyd8AyHPPPacSK76FPfbaM6bpUlad3xaNYXPAEM7L10gxnMhVq1XzhlNQoPNDWClmHN6NP4FchTvuvFN9SjDryy69VD799FMNdYXZsy5OPe00ycvJ0XwF/AjkRvA9Ej5CAloAn5PTkEpCY1aWrFy1SkGA+9BONHAhPV2jlRZ/9qn06tVLuxVMlisrupf0PUHtrKRt7MjnHDDsSOrHwLsx6WiGajgsmJNIQEK6I4/h7bfflldffkWGDx+uG3rypEnKPJD80BrmzZsnL730kgLCEN+UhCSK1In0BzNKTXNRSMVZBtsLGMh6vvjiixUE0OKqVK2qjJ/cBSKGeC+BBCMefFCBn7lkrv/680+9f/asWepzABjIkrbgA8JPTz75ZDmmdWsvOS45WbIzM+Wnn36SiRMnyrBhwyTJT14cOWKEChetW7f2tALfl7L0n3/Ux7DvvvvquyxAgd8tU7s8ahEGCma2K878lrd7HDCUtxkpp/2xnALMQm+++ab6AJD6rurZU3attatuZhjJs88+Ky+88IIyFKJSzjvvPHU4wySq77STlkDA+UjUyzGtj1Gzhbu2TIHtBQz5uZ7JCJs/UjrzDPOH+XLtvvvuqgGq+dBPkAsCBxFH5DVgZkxLS5PTTjtN/QEPPvigzjFRTnahIcyYPl2+++47ueOOO9S0yHrAHEVmNMELJoQAAmgZVatX08AF+mWlVCxr2/mhtrxuSnqHA4aSUq6CPGeAYBFCMCgrq2BRInYPPzEhEVViar89x6YOOgzdpt66BbS9gCFj3Xp5+umnlbFbIhs5BdQ84m8Ye7169SLZzyr9+wDB77/9/puahIho4hnCkQEGHM9kN6NJ1K5dW5k65iLKZ6BRonFqZFGByMsvvaQ5FbwPUGINmUZQs9YuKlxUq1atUFkQ53zeuvWztXc7YNhailXA+yPF1vx6OfyNRBe0o0ZvVP62zW01kZD0ohlcBSRniYa8vYDB8lAwHaEJwKwBfKT5rMxMDyz8khha8C4U0ig0uyc3b0MBPgshDYI+TB5AYO7xQagpivb9uk1oLJimzGxlxfcgkq6hpFBEi+BvMycR7YYA4q7tQ4FyDwxBe11RJHDxzNtnYVirSH6YCKIZf3SOAfMEQ2A+ggCwuVwEV/Ki+HO3PYFBo478SqX8rsBPxdzA54BEJaKN/FBWtAb9PuRXZPW1BNaKMXWrzRSsthr8TrVKSnZsqkoqTnDxiv4ZIJQ3waIo/hQPPMkBQ/H3ZoW9M7rqabRZCakyKCVGm5+C4GA1koxpVFiibuXANwcMmyu7bUxqk+Gq9MM/nME0Aj5CK8DpzGXmo6AZSe9N8kqv845IXotIJDGRubas94gG4Jf3LiQw8H4/x0K7Y/kWocJltYOCRDADeitJWaq3R/JB/FajQSFWQSIhPz+/IOjZ11K4IhsKVBWEvSgBf7KIX8ZuSGllyuFSpCvIGMwGDUH4R5TKLrvsoo6tYJVOYthxSHrtJkRiqCMLKSFB1qxerZEvlGEwqYKMWqQSi0zgHUi1RESgppJur5eqqhskoVJdDa6xCAWipX51TKb4pbX9ss/5+Z5dWiOcMCeJFw4ZSgxtOr6+mDQOZkxHV9yMMFM7lcZv05heHmaQUCgSHx8dYsjfVpfHorMsOSzI8Gxd2/uiGVh05Az3Y4fnc2OQW1stFLCe/sTjMm70KG3n/bnzJDXdK7td3IN6ImARpE8AQaLHU1R2ejGnKaZvC2rLwZBZ5vHLL76Q/33yP+V1JAe2a98+EtU1ZfJkLUrI2kfjgp5oPsy9CluUlgmHtbowYb177b230mntmjWaJ8J5GGZ2g/Z2zon6fABt2LIlK/olasL5efL9t9/Jki+/lM5du3p0h6drkAdl2D0hzpIWNyUwRDQGmCudMDMAGZHKXwHtBJH8nFztKLVTiExp06aN3P/gg/qlES64kXiWwVEs65xzztGUe1MzSZYiDZ/MyrRKnuoJ4fr27avRDBAS6YTsSSo1jhw1SgkIMSG0HeYR3Jy8i0JfrY4+WtuLqMGbFZVier2Wq84HM6GV/kSRUNbCFzRMugwrWHBwTKKEC8IS0gW27ReCApuHMFl+slZUgMjyQi8j/QiEQ3oLXAqdA8GzdviQ9SooDXv7zDuoKPoK+lX4LhhiaVpXsC37PXhf0JFvjJl38Tn9YnwGIpMeeVgmjBtbCBgQ1ABezm3j+cRIrSS/t1Y6KfjnJo5zMyHPgC0opdNn+hXvFU5tPoIasZWG57O///xLHffQAeGUMiDwL3wmXbp00Sg92qD8CxVmmXMTQMgRocwMNcSoGEAeBzSmrhSVAvbcc0+vnpTv07HSJPBTQniTUhCyvMvYXF5ujsx67TV5YOgwzSInbLjpYYdKGH+NljXxCxCyPnNzJDW56PNOEnJyclRjiJ7ggnyTtsMaf/zMM89oKjuFrujscccdJ3feOUA3P7bHoqJMGAjJKRTWIiOSexg4CU9oHGRS8h6kNrQDkmbItGQTcx+FuSColQUGLCAK8fQAGQk5FPEi9jqi+vpRMx6oERO97UzHtbBpCnhZsR5zJ+4cxoXWwNzzu9a+qVpVgT+1UqrOySYE1BKROdrEwhqz9cx3Lz7/gvz333/KTA877DA57PDDIyU8qAvECTasfdYaxdvMn0JnaIfn0HaJrAmaRowxaqawf/IZYbkNGzbUDW0XgED7CF1BQJk7d65G+xCKycX39NckUtMm+Ju917Vr10J7lHFOe+xRGT9m9LYDQzTlbYIKCrSGEXvNfEcGUHXq1q0Qe8vWl/00IZj5p47Ut19/o2G58EXWBw52QnEBAEv4ZA1gXeFcCqKxuGxdMe+UGYdHUnMKIearJUu0bc6l4IoI676ZzdZKQmKC5Ptnm2zQ/grk3TlvyW23eNnj9JMyNhd07yYNdttdkuxsjfw8SaLO2SZ2nWoMJhnYZrDj9vj5wby5MnLkCK2Tbouc+yihO2L0GP+EKK/YGR0xNKTzRA7QqVNPPVXroJi0BShQOZFaOclJyWpOgrA9evTQzFm1PyckyM8//SSjRo3SBCoLdyR8DoKzgWmfn3YcJKFwxF2bmlQISkvEdtxDW6KACRDr161T0yBATWghc8r87LvffpotXcWyatUqWSC5/ili24rbxkzZlNEVWlkXX37+hRfdkpiojJhy0mTWIrCgnVapVlU1WzYzbRDpAtNlLZsaj3aMIGTnSPA9uRjcS5lpi69HyjvppJM0WQswoBQEDIL3m0kK4ABo0IQ5Ae+YY45RQCLL15z3vBtwoR0uQAHJkzZNAINZP/XkDBk7auT2AQZfwELjf/XVVxXYLZcARgjtDjjwQElOrTgn7AU1O+YT0LRwX84aIReEeWG++Y76T2T5YzLiNLynZ870jjINhVSjgE8h0FLKnIzwJk2aKEhQcgRgICeENW0ag2mOmJ2oO4VQo1ocR6f6viA0g3fenqNVc1krxid3rVNbzurSVS68+GJ9P9iP6X2LpqSIwzA/XzIzMrWQ1QP33y8ffviBFuDie+2Eqi0JWnp38JAhkryZiJWnnnpK/RHz58/XE5mIc0aKBBT4pydFFXjOKnwRaAP4FDg0hDo79IEMSQiHIwyNgSJeEJ1N+sYbb6j6RaleiMfvSITqt8DH4EdNbIm5ue+3gQIBx+HRrVopSFPmgIuFRxLcY9OmeceDsoB9h2JpHtsZdGSaRIdWSjYv1V9hzmwQq+A5avRouejCC7UctB1Qw6ZGYzX1HXMAmo/ZddmgypR9hyxZ3vjOEHrM7wAw8DcbnM9ef/113eSYGCgpQib467Nm6bpEekRCPLr1MVqriDMLbBz8reUn7rhDmQwCE9p6sLoogDh50iOlY0oqavrDXr4K5288+8wzSgf2rmn9lDo5sGnTuNcaigqWMADnO0yVCLisMUp9sCYoQY8gwvy/9tprChaYwCkrwjriOZP6EZ4QElg38C/WKSch4ndgL3Ef7SEcsBb4HvNTs0MOUXDBROuVv7fzvQvkvbfnyM19+0XyQWgjL5wvCYkhqblLLbn2umvl1I4dN4o0DC6DhNzc3AKLEFFJLjtHKydirmFj5ObmSFqlVLWPqf02z5OksIkNvm+IOjVwdnGZVM8iQisADNgA2Myo0ohZCGkD6QiE1KqJiZ4dGmRloyKJMGgGSnVOsjIpwYvZiZR5AzAmAnRlMxsw4HjWOOhgqN22iqTbwDMrwqPZmVkqEWWsW6dStcW+AwosbCTkJ596SksiMKdZOdmRw3hKAxwMCNhsFtZoaj8b+JefftaS0FysHysfTd0nSkjvu88+CgZsajQDNp4dVm8OZzSgZoceGpnOrIwMPXMA89KZnTtHSjjcPWiQmkxbHnmk3gsAqKaQlKTaLwwA8EBjYK1TzbRN22MjgGDaD+cqIxChLbPvAC32BfvLMoLZgxMnPCQPPzS+9DUG9RF5EUWMCQa32jchF4QLdP7gEYc0PzzugcEmHQbOuBFwDMDJ4L5rwEDp3Lmzgjz2fDRGk/SpQQXfw9TOoUdkd5tFhTWAlYQDjDjaFG27RcuWKlRZjgfvZo+wTgEH02ZpD8E5jWAD8xlh+veO6pM335itGoOZJek7pWcSQ5QtD6lwc8CBB0iv3r0VjIq61JRkseq6ERJDqrZSz2Tlf/9JOJwvODSSk5IkJTlFNw2L88iWLeXBESMxgBVaHBANWyuqENIGph2IiU0VKYPNASGQ6NicOCHxL3ByFIwFTcJq7/z4ww+aLn/33XfrsZBsDq6grZfBq0qU4Gk1MCI0EZiV+h0qkKq7Q4DIt0evW7NG2rdrp2YZPafBT2bjUPeJDz8saX4yEo5RM9OUVn+j/Qy2Rp9//nk9oYzNyuagFDiMGaccUvhRRx6pZxM3a9ZMv8MXYT4whBGCHJDG8AMAGvjTuCgShxaLBnz1tdfqJuWCkXOfAoNvikFLwnSFdgsjwNbMWgUY8Hm0OuZo3R/0z0xFAAPSJYIP/aHYIAEfwRBfaDh1ymR5aOyY7QYMjAFzyJy33tL+YSkgNBamhsP0kMMPE4kKKS2tOS0v7QQjsRTs/fBczIQAQf9+N2utKMB/xfLlago/66yzdI0h1GI+wtLBvmC9sDZNC4Vv8TlCOGVFEBTIQn/rrbd0DyGQIFwh8PBee54+oTVgng+WKvFoViBvznpdbrnZWzvmG8rNz5Os7BypVClN8vLz1TpzxZVXSA3f5xFN74iPwSR+hH9UFDr8yMMT1XSTmOBFDeXmeBmvLGCAAR8D4VKW5ELnWbyk1HMPC4hLzQiBWGdAAvMSdl5MSRCTCCROgoLYlGXm7Fg0BjagSUvmw+AnkQCYmkBxbMdoIlruOVA2WFP3ncawffcYJgffztmiefOIPd+kHoCagAI9AQxTTACogyagknYyGhSCbaK+44RDOKE/mDa5n00BMIweNUo3m8bnh0KRTYtQhL+KgnC0Z7V5dI9gYsrM1Ig6ji5FcEn2HXqD7rpLtWMkQzRlXX9+mDcRKDB6/C1kAmMuQBMAGNBo7rzzTpUIDSRgNubE5FmAwpzhFigyZfKkbXY+65iKIL5qDOGwBn489+yzuu/Z/4wHeqAx7d+kiUhSKK73WHB9mX/H+BC8DlMS80KUJcCPvwiGjn8IAbl9+/ZeiHY4rDXG4Gk2f7ZHAAH4HWBiocx8h/kRUzy8mDZxXGOqMpOiagh+1BlrmAg0ePE7b72pgEW75j/WfZeQKIcccqhce911au5U3pyctGmNodA3UckmP/34gwx/4H6thaJxuEnJ2lE2zd333CshDgn3pQYjopl7kML4HXUJdGSTGVNHA0CSI2qECpxIUAAJUhuAgdOaUs6cHIYDDA0Ax+aHH36oCEvMMCYACEnFT8xInCq1c40anlbhO3kcMJSU5RbzOV9jyM3O1nBjBIigDbV+/fpyc//+EVMSUkZREWzFfNtGt9maM8mOG9iorNE5c+bIa6+8qpooWjFSO4xu9z32kAvOP18mPfKIgkGfG2+M+CDMX2A+BcuZYW2iEUhionw07wOZ/cZsWfHffwoQ+LVoB9MpvjfMCnYmMf1jfbPeWdeo8WgYAARSX+tj26hZlaNToR/PISHa2deYknr37q2mG8t9sM2O4LatpiQj6Ebg4M/rE9OmqemX09rwPfITxoS02qhxYw8UKpjwZeYgaMd5JMwbzmDMMswbGh8h+ZiSyMEy/yyCL+sDXmVBM6xVNFvqQaE1aL5PTo5qZF9++aUCDKCAxobQgZDDeqhWvXpkL9gRugpA+XnyxuxZamWxKDv2AmG03S+8SDp0OFX3YiRZcRNzV3TmcxAcElCds9XEM27sWD1chcFgrx0+clQEsYLmHXrM5kfb4HNUqugCaqZBTHvsMel8ZmdFQ5XOUlIUAHgPn6ExsOGYDIhDW9jtIIyXTOWZtzB/gcaYpMzPoJSrYIu2pAy2xM9FnF6iYc0ampmSIuv9oxqRWji4BdtpdInt0tAY6DfzrXNumbp+ngHvXrFsuQoObC5MN6YZw5g5aEYPlRGRzPXr9SeaK5oo7WFCKqSJJiXJ6pUrdY1Rehw1H7CgpHjNXXaRwffeq0XkEGhYxwgnbG7Ki3NQEU5o9g5rGY2C+9AYkDaxIWO24TszNaiAEw6rhoMPjj1j+RDspxnTn5BRDw7fJlNScN6LAgeTRBV4CY1MTpEwTk891a1AI2Mq2hUEhqFDhkj9evWVsWu0j39ELeHPRFASakxVYeh41VVXqWZYr379CGNGSMB0jo/h8ObNlafNnj1b+e29gwdH7uNz9ha+J05KZE0gLAcvhLPklGR57913VCNmzbMn4JnkVNTYpZZOmQpTVoZkq4CBtxk4JIiEyRBNStKNj62TRYy0M3jwfZG4WDYSl6lJLGCcVph8zGls8eUsMtRmUCwaUGjDnJJEZoCcEI72AQAGibkJVRspDlUOaRBzE2aLbt27R06cUgLEuQ10R29Kk9izMvxaOtYhNoi/+LwyzaiyCWrfVGnaT8LaVrZi4BIEGdYezJV1MWH8QxFnHuvPMua5HwkeCZi1hd+LNYQmimmSezlYBg0Who1EiASGk5r1zEbD5/DMzJkq7WP2wSSKdmy5EpgS+AxQaLDbbpFoOUg05L77NFT1yFZHKXigEdAm/QMAMDXxPhjGrbfeqsJQ0KRFn0lwKy2NYVOaA8EmeqKbXwcLPqCCnx8xk4ApqYJdQWDAl4opEGEBsyRrDoaMZQO+hXXD5o2qsjiSWWPKYv0cBKwizD3+OBj5J598oholfA4QsCQ3TPT4yPBjkfdgVQbMlKtJnAVheeedt3XN4T+zSrZ69oVGgBZ4pe6t5lWxTUlRk5yflyshf/JN/SCRCfX3uOOOl1CSV6vdBmp2M35yrB+OFHWQ+Coyv6OKIomBsqZJBKNLTKpCA2BjMTiTBlHJCUMENNTpjE8kL0/NUkQHcF+kxj/SbAWUaMpynwZtsMZEVDvwpZlgyDC5C6wlnJg5eblqltxWYLD389Mygi1Tl0z95f8uU4HCYvA1dC8vT0v9JCUQAAAgAElEQVRCEwxhVUVR+zllDt8C2q7Fj7PBYfxIakj2rGk2sZ0/gfq+YP58tdmywVmHbHBCY/ELkESHg88kSataCkPhGcJVWeeENbKe6SdJUvgpYDT0BzDC1GrOZ3MqYkqaOH5cqWkMRYGDOj59Td4yEy0Gf5snrywXaim/y8ABfoa/BXMbgirrBgbO/JFvxRkTpuXhj/r9998jkZU8a4EamCTJZrZ2EapZd5ajZT/JH0NbML8tw6JCrfpWk4jwzJNff/1FQ6Dx1VpUnDd83+63iUz3QtqjZrdt5tJ6Q5QNyEFN8WJwbTOGEnGuecgXXW+JjoOetthNW7ADQKLT6W1jGzoGk5Us7MrCYTXruWpVLyOzQCJlEBSB/XIaqrmoc6aUV4RrrhAFWDwaZRRVIsL8SSYt5RO6WRDWbEueYT2lpngJNqUxRcHokSBYmSYTrBSKqRIbOWagtPQ0XTM4qrEHI1wYiLC+kPjYzEhvVkacdWh+Et5rESdkqmJKatWqldIoWCpGt6UvQPGMhatyb4RGvjbFcxZ6y3sAF0CGvWTv5Se1ksaMHFHqwBC9xKGdJbAaKAFSpekrisVtxTqznAb4DevAQoqLqiZhGeRW1sTWB7Q0XhkM+TffhEUycV908Ulrw/y6MOScHM/sRB+CQrtXDsMreV6UpaYQMITD4QJ7uOjJIfY8SzexWpd8EwB12NnkoQQvrpc2imrHVPygt93uMxQMPmcD3FRRMQutpa/adkJiJItQVVy/KuSWnCuxuBDLY59ZE3kUyfML4kWHolroKJqb1u9hjlg7vrawrcAQFBqMPnxmG4Z++eqsCgoW/018Ps7ASule3gL/8AXg4EMoMd8V6jhRQVb7P1jrKJiHwfpGC2jbtq36JozZB+Uu9bf4B9EgDSIhYpKlrwYkFnptbcNs0ETI47EoP7uXcNVtrZW0pTXlzRWlE7yEURMAFejRJHzT0pbaiffvbQ4j5Sp8fxDjZk6Dl/FEE2A24mlmgo2qR2UCi/G+QlqD72dLTobxb3gbwphZcRIT2AteDa2goFLU3CQU5IepuBVxIkfflF+Qr2FQZM7BAFKTNwySgmgAA/aqaFAI2nyjCcHflkTE+4x5sOiCUohJgRaFYWgZ3JCRmk5+tjPtGSioypuCk8xd24sCVsnTmBWMoii7v2oJ5MOo09IDCKqupmymXsvW9Jk1YkJFcC1i3lLpm83pbwj6F/nM30QmpNjatIKSrEn8DOQ1RIQRv/yL+dOC0lch01pU2Wmjka3joLQZvX+CzAKzlAGThazSxsMTJ2wXU9Km6G5MBpBgLslr2lZg35o5Lo/3RjPZYK0u+hs0dZqkXpQQHQzOiU78jOaJQeuM8cgNZ1po7WLPHJqcokKYlh1CkPYDRRCmmbfNBX94wKDwURQ4eF/l5nvagTEBFojXuEkRnlQWdEAHBxqUsqIHSeeCGyVYMKooDWSDyuTXcKf0hV/wzyvo5sX2egeQFx2jWx4XWCz3SbUGah8VIT2alKOg7xfu0sNX8vO1XEVp1FYNrgkTIqBnZAP5uTmFamhZAlrIK5RXlNARXM9B01GhtgOb3zaamQBMa6B9M0MFmUUQaKI/t7/VRhzItrWx8jl5DCS4eecxzJUUv+y2t/+9UvmRPbSpCqrFWHg29iDoeYym9KrjFqMb5faW6LVhjD9o3oxmwgb8tl7NVKe+Ar8cexBAgmsouF6NKGq1SSS4g7pc+QoKkSq7kTL3Hj+Ebxfio0VQNqGAHPfNXlv4ulQsxOV2zl3HHAV2KAUi+TgBjdj8JRPGjdOyGGj01FpSqTHE5t/EWSS6laM8Ojjp3BVHFNjSfBbPo5eQk525pZbiiGhuKI4CsUUBi+hDKrVoKT7DvPTKSy/LmNGjJCU5SV595VXNxNYDVMzf51fftBEnFFgJTO8Tb+MXSIEDh9haFGXQ24SWLZo7YCgDQrtXOAqUhAKAQNDpaNF6gETm+gxJTgpJTnaWRukRcZKRmeVVIqYEfkLgJEbFAC8AwPQGBwwlmZGK8UzCIc2aOmCoGHPtRhmDFAg6LC0XyPwOlVJSJTNjvZ7ClZGZoeCQk5untXnUJp3knd/gXfgcvJ+FjQlOY4jBZbHdu5wwftwYBwzbnczuBY4CJaMAzklLyrP8CStpvnjhIvnm669l3Zq10uv63pospWHe/mlwdjpdEBRMW9jQGwcMJZuZ+H4qIS83xwFDfM+xG10MU8DCITENWbKoHSL05PQZMmrkCI3uen32LA1pTbaMcw7WUhXBCvZv0BM21hhimECu69uFAgkFXnCruxwFHAXKKQW8o3Y9pzIRSYAFeRcU0Rsx/EGpW6e2PP/iC5JetaqOgOMd0RY4mKWwGamcDtB1q9xRwAFDuZsS1yFHgQAFAgf+ROfpPPboozLxoYfU+fy/BfO90uaRMjAJfun5QC6PEwHd0iomBRwwFJNQ7jZHgR1KgUAeA/0ggfPRqVNl/Nixeib7+/PmSopfQlz7iXahR59Hxa07cNih0xgrL3fAECsz5fpZsSmwKWAYN1ZCCUFgAAhABO/chyLroDlwqNhrqRijL/qgnmI86G5xFHAUKDsKRDN5oo+CGgPH5aakeUfpbtAYigEMxUuELbuBujeVCwo4YCgX0+A64SiweQpsHhgSxQMGTqPzaiThfC6WxuCAwS29IijggMEtC0eBGKDApoFhXKSInh1T6oAhBia0nHfRAUM5nyDXPUcBKLA5YCCUFY0hAgzqY3Aag1s5JaeAA4aS08496ShQZhQoNjCoJcnzLWhynB+VVMhiFHQ+O1NSmc1hLL3IAUMszZbra4WlQDQwEK46dcpUeWjcWP9oz7mSqucxbAAGclctKmkj/h9Iiq6wRHUD3yQFHDBU8MUBw4k+DAaSRJ8iFTy/WA/lSU7WAm12wI1VAaXQmzGx4KEyeh63/x3tR4dRRh9mY++LPgmQZ4s6X9ymMXhoih1+Ygfd2BG0/G3jiz63eFMHpxjDtbHztx0ryjPWJxPGOcRG+0oZbP9QGyw8HKoTzbzxF3vHnnKYosfC7TCsyPKMOnSH7OZHp06RcRsBQ0LkQC2bh6KUgk2c21PBd4MbvlHAAYNbC5HTnKLP7g5KqTBEO10qCAJB8nG/MXQ7O8DAIQhAyvjCHuPkezvpjL+DRyMGz3O2vhgYBRl0sJ9BMAoCiAEBz3F/8J32XjtAne8NMKwPPM8h7kUBhPUJumRlZ0tKKkdebmDH+eF8j3b+kYpGMyt4FwQBPZgxHFa6cArXRsDgc3QDhvHjxugBPe/PnacaA9ASObkLwLIEtygkcMDgNv7mKOCAwa0PpQC1d6xq5/fffy8HHnigfm6M/tFHH5WzzjorcvawMdqvvvpKGjdurMwM7YGfzz77rJx22mn6N8yWtvnJ30FNZP78+VK9enVp0KCBMmoYeVCrsLOZ6dfbb78tdevWlf333z/CnPWc5uRkCed79YM4h2Dlf//Jhx9+KO3atVNmvGbNGj2z2Y5JtMPa9ZxmKZC69eppv+wsZTtg3ejBfZ9//rmCwj777KPjo692NGN2VpakVqqkdOI7+nlQ06ZSa9dakbN2AQZAASbN+HmHnhft+wDsKNDEUKiQNlRoaZrGEACGqVOnyEMOGNwO3g4UcMCwHYgaS00aAzTpHYZ18cUXy+jRo5VhwhBhZhdddJFMnz690AHiMLTzzjtPpk2bJhwgA2PMyMiQG2+8UYYOHapMH6a8fPnyiLkKBl6rVi1JT0/X9mrUqCEdO3ZUhqiRNampKi0jhcPM99xzT6lZs6bMnDlTAeToo4+WZ555Rl555RXZpWZNTfKlf1dccYUccsgh8sMPP8jUqVNl4MCBChRvvvGGvPzyy3ri2V577SV2/vh7770nrVu3lv639FeJe+XKlTJv3jxtiws6HHzwwdKwYUOZMmWK9tn6uWDBAgUGNQv5ZScqpVWSZoccIv3791da7de4sQKPmukSQxsdgBvO8wrjqYbjn01ulVTROqA7gMKzPhJ65jcfGLySGFMEjYF2nMYQS7uu/PfVAUP5n6My7SGMsVOnTnL//ffLAQccENEmLr/8chk5cqQeBmMmGpjp2V27yuxZs1Vi/+OPP1Savv7662Xy5Mn6+yOPPCJoIDvttFMEPGDIrdu0kcenTdP2Op1+ukr6Tz31lKxfv14++ugj1Vh22203ZeZt2rSRSZMmSf369eWkk05SQAF0Tj755IgmgMTOe1atWiWvvfaaAhPgwudoEEj9gEflKlVkzerVctVVV2nfADQk9d9+/VUWLlwoaWlpCg6LFy+W/fbbT84880zVgKpVq6ZaCOMEePj5/vvvS42dd5ZGjRpJ/QYN5Iwzz5D+t9yiwAqgqFbgX6YVQJM1q1bL5599pu82Ex2O4ga7NZA99twzYtoLHtgeMZc5YCjT/VBRX+aAoaLOfGDcSNEm8X/22Wdy++23q9noggsuiDC3zp07q+SOhnD88cfr05hNBg28S4YNHarS/IQJE1RDQGp/4YUXJDk1Vat/wmBbtmzpmZaSvGqflJJ+7LHHpHbt2srgrax0Xm6uSt3nnHOOHHTQQcr4Yabcu+uuu8op7dvLlEmTlCkjVcMwAYkTTjhBfv75Z/nzzz9Vmh86bJiGan784YfyySefaJ94D8ADM37++ed1LMe2baugBThw5WRn6/cvvfSSVKlSRU7t2FGmTpmiAAYNlFlzEE44LOPGjpW9995bAQPNC+Y+6O5Bcsmllyow6PGaQX+GVrhPkA/mzpU77rhDwbBqlaqyZu0aPXXt3HPPlauuvloqkcGc4PlhIk7tKFOS0xjcxt2eFHDAsD2pG0Ntw8T4d/XVV0uPHj1k3Lhx+vuhhx6qn3fr1k21AJg75iJ+9uzRQ67ueZWanUaNGqUMGkbevXt3lfBhbJiZsM0fe9xxHiBwVoAfWWSS/ymnnOKZb4h0ys6WK6+8UqX7lkcd5VlR8vNVuofZYkp64oknlJm3b99ek7rWrVkTYaB//fWXmn7uuece1RgWLVokq1evVi0AJss/GwNgiLmoTt26ak4ClLgYA8DB86effro8/fTTCoq8j+dh9pimxoweLXXq1JELzj9fy1HQz4F33SWdz+qsfoZCV0GB5GTnSEpqqoJV7169JDsrW5JCIe/UteQkuaBbN+ndu7cCjAdUG/IQnMYQQ5spDrrqgCEOJnFbhwDTROIdMGCANG/eXKX1X375RTUHmCHmFMwjOKCNcfbt21fatG4tp5x0snwwb54yzxtuuEH23XdfZeojRozQg2MmP/ywahMntWvnOVu9BvT3xx97TBk8Urn4YZzL/v5Hzjn3HOnSpYsCBAyb76Y88og6n0/p0EGefeppee3119RPgXZAGzDOww87XI499lgZO26s9n3OnDny66+/Sm5OroSSQoUc5Ao4PkCd1qmT3ofGAyiYkxyN6cQTT1TT1YwZMxQcHps2TUteozV06dxZtaFBd90lCWhC4bD06dNHlv77r9RrUF8GDx6sQKIRTknJkfF//MGH0vOqnhq5BBhhvoImnbucJTfddJM3Zp9G1DzSvjqNYVuXuXt+KyjggGEriBWPtxrDwUGLhI8NHwcwvyMVEzl05JFHqiQ7ceJENS0NGjRIHb3HH3eccCA9ZpXFixYrmHTu2kUuvfhi1ThgsGgORC21bttWGacBAL9z0AzMtsNpp0k4N1eZ36uvvKpmn0WLF+mzGoKZl6e/Y8uH8RvTBBR4xkxKABwgQKRUi5YttD+rV61Wh7NqJKGQMmmLPEoIedpDo332kSVLlqjzG/8IZp1cP3oIaR7fB6YkNBvMPHz3zTffyLTHHpOlS5fKkMH3SZ0G9XV8N998s3Tr3l32P6CJ9i2S1+HZhvSzhfMXyOVXXK6OZWinWJmYKF3POVsAXO+wHT/c1U7mdMAQj9uv3I7JAUO5nZqy6xjaAheAgOkFJy5mFovhN9MLNnaLpLEQzz9/+12I0rHEMECAEFGcx5WrVpUJ48drZBGSt0XdmCMWp67a8U89Vc1Iy//9V81YmKyQ0Lmfv2HmMGcigzAl0S7mGMw93APjt/4wFvwWt91xh5ql6Bttma1ezTZ+CO3OO++sJqe8/Hz53//+pw7na6+9Vk07Fv4KXSZPmiTce8aZZ6oPgot+YQ5asWKFvP7aa3L33XdrFNSdAwbIueedK/s3aaL3AbAWyqsqSjis7+pz442yft16jWzKD4eFqCbaB5j0JDYNFc5VkHIaQ9ntBfcmX6kvsN3qKFJhKWBaAxI3TlEYOWYbGCT/AAnMSDByi7SBWWN6+erLJdL6mGNkl1120bBUQj6JJLqxTx+VhvENEO2DxG3x/zByNA7aqlevnrRr317+/usv6devnxD91KJFC70X5otp67LLLlO/gUYl+f4IGCy+DssrMLBB28CsBcNPCIXUpwFYaHhpKKTgx3jXrVun7T/19NP6OZFQL774ojrWeTe0IMqKC1MPAEa4KqYmtKemTZvKxRddpPTBv8LYBwwcKAPvGigXX3KJ7LHHHhGwMvricC8IF2gE1HPPPSe52Z7fg+9T0yppFNjxJ5zg+ReiD15zGkOF3Z87YuBOY9gRVC+H74RZwzRvu+02Of/889VsAyBwwXTxOxAZBJOEGS9btkx69eqlIaeYRLjHpNvzzztP8whwFqM9EEJKWzDAypUr6z/agIGbxoA/AKkfxggDNWf4Tz/9pEDz+OOPq68CU1JaerrMeestBSaABeZqWdswapj2pZdeqkycfAXMWjiJLUqIfjAO+vXwww+rv+CXn3+WN954IwIc3M89u+++u35OH9q2bStEbWFG6tq1qzqSzTy2eNEiOeDAA+SuQYPU+Y7D3cp+BMNOPfFfJIdIMDKpKUmSn6+mJKVhSrLSycqU2FJxPoZyuGniuEsOGOJ4cosztGBIJPejMSA140S2ZC+0A6R5TDIGFkjcMN9bbrlFHbB8zn04cXFiDx8+XLWIQuGagQ7BBMkHwOyDgxsmamU0DIyCdZcwLxEaSg4E/SI34aMPP5SLL7pYGbhmQaekaDuAA2Yn2ps9e7Z89913GgqKJsB7uRcw4f4qVaso0BiwmLOYPlgmN1FQJOJh8qJN2tDyGH74aVZmplRKT1MNhrHjNN9t990jZTeggZWm4Fmes8Q1NcGJF4Vkc1HkyZtOYyjOcnb3lBIFHDCUEiFjuRmYk0nTSPE4by2805gg96AF8Lc5p7/++ms1FZkT2OoeYfo57LDDCpEEpgkzNVs/TPDNN9/Uz1q1ahVhwsbYLTqIRrgX0wsawxFHHKFtfPHFFxotBMPNy/VCYK3UBG3eetttasoCQAAH3g8gEMFkEnxuXq5c2aOHmqiC2lEwMQ064JQGbPCTbJRX4I/SJHqSAM/q0kXq1qsbybLmFiKQoovZ0T+NQPIvwlSDBfU8QPG/dyUxYnmLxVzfHTDE3JSVboeDtYuMYZpEbXWFMDOZCckqlapFxAcUK6rHZ1rKIT9fgUXDMKMuq39kGoZVaeW26GJ69rf1y4rL2TMWXWQgFtQ6rJ9WAymouZDkhjkrqGXwDqunFG3GCRbUo12ri2RgYuU7lF7UncrJltSU1EIjp7yFpiX4AGb005Q3i0CyKqyBqqyRRooABiuJ4Yrole6ecK2JOGBwqyBSKC+aFBaXYAzXGHXwc54JgouFg5pTNboct1VFNQk72v4etK8XiujxNYdgdBGMOPh80CwWLKcd7J8VBYxI6YHs4uiS3dZe8BmrtcTzFuFkh+LoT79htBHrX1IIwPBKapvWYP0mIkkjvYJ1kSIaRHhjjUERxUsUdMDgNu/2ooADhu1FWdeuo0ApUiDifPbb1JIYU1wRvVIksWsqQAEHDG45OArEAAWigQFtBY3hobGuumoMTF/MddEBQ8xNmetwRaSAA4aKOOs7bswOGHYc7d2bHQWKTQEHDMUmlbuxFCjggKEUiOiacBTY3hRwwLC9KezaD1LAAYNbD44CMUABBwwxMElx1EUHDHE0mW4o8UsBBwzxO7flcWQOGMrjrLg+OQpEUcABg1sSZUkBBwxlSW33LkeBElLAAUMJCeceKxEFHDCUiGzuIUeBsqWAA4aypXdFf5sDhoq+Atz4Y4ICDhhiYprippMOGOJmKt1A4pkCDhjieXbL39gcMJS/OXE9chTYiAIOGNyiKEsKOGAoS2q7dzkKlJACDhhKSDj3WIko4IChRGRzDzkKlC0FHDCULb0r+tscMFT0FeDGHxMUKBIYpkyRh8a56qoxMYEx1kkHDDE2YaXd3SLPF96Kl0QfV7kVj5bKrdva/23thB2ww0+O4QklJurJdnoqW5gj2xIknJ/vHQmaWJhaRR0aZKfI5eXn61Glkcva5IMCET2PYao7j2Fb5889XzQFHDBU8JWxrYy1ogMDyyd4lCcgAEPX85wTEhUUlNkDGOGwd7Ynf/vHeeZkZUtKaqp+boDCGdqpaZUKnxIddbSnA4YKvnG38/AdMGxnArvm45cCHqhugNZNgmRBQeR87KTkZAUIngIIQqEk76jOAu+IT7v0e/84UO81vhbiv84BQ/yuq/IwMgcM5WEWXB9ilgJhCfuHMBfo+dOc8wxAcM50UmJI/v33X1m1apWsX79eatasKbVq7yopKSk63uSUVNQHyc3OkeTUlELnV8P/FSwSfLBwwBCzayQWO+6AIRZnzfW5HFGgQHJzcyQ5OVn7lJ2VJYsWLZInp8+Q77//XpYtW6bfZWRkKCCEw2HZZ7995dhjj5X27TtI3Tr1BC1CrwSR7OxsSU1NVWAxAPEUBqcxlKNJj/uuOGCI+ynezgM0S8rWOhtK+tx2Hs7WNp+Tky0pKcnK0P/3yScyceJE+Wzxp1J7111lzZo1UqlSJdlpp508P0NCgvy7bJlqBjD+tLR0OeOMM+Tyy6+QtPT0iK8hNzfX0zx8P4QDhq2dFXf/tlLAAcO2UrA8PF9SD/LWMvOixhp8d3Hb29r+FrfdHTAX4TARRwkyauRIeeaZZ2TdmrWyS82a0r5de2lxxBHSrFkzZfJoDVk52Wpa+vSzz2TOnDny4YcfSWJiSHbZZRcZO3as7Fq7tmoLoaSQOqiDUUtOY9gBk1uBX+mAIdYnf2uZbPR4t5XpRr9/S+2VtL9bancHzSPAcOcdt8vs2bOlID8sp3fqJFdccYXUqrmLMvfff/tNfv/9d2XylStXliYHHiBpaWmybt06+fbb7+TeewbL73/8LlWqVpV7771XWh51lI4kNy83Yp4qpDHoHy5cdQdNd4V5rQOGcj7VSIpqfk5IUDtz9O/EyhMKade6tWuVyRD5gkkCmzbPYaogkiWUlOSHUiYo4+LKyfZCJjXEkrYKCmTt2rUq6fJcxvr1kl65sn6flZWlUi2Xth0OKwNT23hamuTl5+n7iLCxOHzu42/96TtTw3l5kpiURCOe/dyP2c/JyvJNKgmSlZmpZhcYaSJSdODaIEFDE431VGbLZe8ySd3GTBgofYA+Rgtlwjk5kpySEvkZoYOIZGZkePRLS4uEnBq98/PzZMyY0TJ9+hMSSkiU22+7Tdq0aaP5C7NmzZJp06bJsn//1XnAj2AmorZt28o555wj++/fROnW7+b+snDRQu0XmsO+jRtvHKUUzGMQkfxcl8dQzrduTHfPAUMMTJ8xQX7C2GC4xmy1+wUbmFuE0aekyIIF86VHj55y5ZVXyuVXXFGI8cOQFGzCYWXoBfn5yszeeOMN6dPnRvnkk09k6NBhMnz4A3LU0cdIdmam3H777eoQzcrK1Bh9GC8MmZ+w5/UZGZKckiwXdLtAmjY9OOJAhbkbSMDQlCknJqpNfum/S+WYY46RKlWqSmqlSvLxxx/JuHHj5drrrpW1a9fJgAED5JprrpbTzzxT372RecUHheXL/lVmm5WVrY7eGjV2luuvv0E6dOwo69eulcpVq0rnM87QPr386quSm50t69ev84EnXX+nj/QVv0B6emUFhNtuu00++ugjee65Z6VGjZoKYPm5uQo+CxcukF69rhMAZ+CAAXLqqafKH7/9Lv369ZMlS5ZIpdRU/a569eoKtFzVqlWTZcuXq/moc+fOcs0110pOTq5c16uXfPX1V7Jf48Yy5dFHdVLz/bneSGNwwBADuza2u+iAIQbmDxAw56V194cffpBvv/1W8nJzNBFKmbQfJtnp9E76+7y58+S222+Tc889V8GBKzMjU6XSZ559Rk0fMNthw4bJ4YcfrhIuztPx48fLggULZMqUKTJixAg57LDD9P0nnXSShl2qlJ2bK6kpKZIcSlJAIPMX7SKUnCR9+vSR0zp5fQiCWR4MVbxM4Kt6XiVffP655BeEte933nmnIEm/++67cu/gwcpc0RL4/JZbbom0FwQZaw8mzed33HGHAgeMHQBo166dtGrVSkLY9zMy5OKLL1YG/fzzz+s7L7roIvn8888VENLT01Ub4uLv119/XXaqUUNu7ttX+/TKK69IjRo1PC2H8Wdny8UXXyTffPO1nN21q1xzzTVqNmJcK1euVODTthITJTsnR39XAPXBHa0D/0LHjqfJTTf11X6de955smbtGul9/fVy3vnnF8qUji6J4TSGGNi4MdxFBwwxNHkmLSMRT58+XSZPniz5eblSUEAsvaiJBwby1ltv6e8w9x49esjll18uPXr2jIz08WnT5P3339c4e0Cn13XXyf4HHCAPjRsnjz32mIwZM0a++eYbBQVAAgcqzDVz/XplmHfffbcy606dOmkbMLUTTz5JDm7WTO6//35Jq5yuppmgVkMYZ2pqJe3D0MGD5ZWXXpZGjRpJ8xZHyIwZM7TfMOx33nlHhg8fLnfceaeC1m133K5Ac2rHjhHGatE6qoUUiCyaP1++/PJLbQPA4jl+x6aPmavTmWdKTmamnHXWWQogr776qprRYOhLly6Vhg0bal+rVq2qwMLvo0aN0r7eeuut8r3pXA8AACAASURBVMEHH8jTTz8tDfbYQwry8vRzNKprr71WqlevJjNmTJedd9pJLrn4Evnqq680jyE5KUm1BeYBwKEfAAOAhWnL07yyJSkpRXpff4P27amnnpJRo0fLvo33k0cffVQ1BvIbDGCDUUoOGGJo48ZgVx0wlPNJs7j26G7COEaOHCldu5wljRo1VIYHs4F5wLCRSN984w2VopGUL7jgAvUT/P3XX8r4NEomI9OznYvoszDoqVOnKhh88cUXChDjxo1TjQH7PRE18+bNkwkTJsgpp5wiXbt2VXs6n/e/9RbZv0kTueGGG6Ry1Sqy+x57RLps0m5+jmeCOfecc+TP3/+Ql156SU0rDz30kDz77LMqdVdKT1PgOefcc1XyR4O5Y8CdEY3BGgUAYL5oPePGjpXHH39cv6J9mDsX49xvv/0U7GDI5513ngLGzJkz9XvogmOYCCFABsBVeqAV5OfTmPTv10+/P+qoo2TXXXeVW26/XUFm0KBB8uabb8rZZ3eVa6+9Rp54/HF5aPxD6hfBPJeSnBJJdDPADuMnSExQwIDpV6++k4TzRU1U05+cocABAK5dv077fGDTpl4JjWAeg08ABwzlfOPGePccMMTIBJoJhZ8wPhgHDHrwvffIiSedqHZ7Y8AaI5+eLgvmz5devXpJ9+7dVWvgWQDi559/9kYd9rJ1sYV36dJFmSoMFnBAo4CB3nXXXdKqdWt5d84cNe9YdA0/+Qdjhqli9snIzNTfO3Q8VW7q21clcGNqMEtMJ9j7AYZV/63Ud8B8n505U81ZSODUCEJjoC+0B2D163+z2u8BOzOZBcM3f/v5ZwUnwAIg/Pvvv1XS32uvvWT58uXqI6Cv/MRkhMYAaAAMaAwAVFqVKpGVkJedLUlI+uvXa3tz587V9wJURB/Rt44dO8o///wjkydPkn32aSTnn3ee/PTDjwq4mNjIZoa29JPPeB99wNRmiW74FvLzCqRSWrpc2bOHXHTZZXJLv34y+803lBbnX3CB0xhiZH/GWzcdMMTIjKqEbBmyIgoMSPMAQ9vj2qoTGCb09ttvq+mCMgy//fabMvdLL71Urr7mGgUPnKkkXn333XeyeuUq2X///dUMgn0fJjlp0iSVhjElARJoDfgf/vzzT22bd5jJBkaJzwAtJSMrU6OJAKW9Gu4tJ5x4ouQQcpmUbEKvoDFgkup23nny7dff6Bj22WcfdWrj+MZ8s3L1Kn3/nnvuKUjYf/zxhwIDiWBaqZRCdJE6Q54picgmxkYeAQADODVu3Fj7jhP4uuuui5hx6tevLy++9JICUtfOndUfgP8gaKaBdnyOT4EQUoABuuy8886y+157ydK//lJ/C9+/9uorsmrVSjnzzDMlnJevtE+rVEnWr12nQEJ/AQLoAt34LDMrS6O3qlWrLtlZuZKWXlnaHNtG+vbrJ2/NmSPDRzwohx56qIwcNUoSQp6vwvkYYmSjxkk3HTCU84mMLs0MQMD4YKqjR4+W+4cNlbZtj9VRcC8MFOmZe2BGSLfdunVTCRTGCgOFWWGuwc5/z913y8knn6zS7SOPPKLaAkyItjCBDB06VB3OMG7uAZz4jnY1fDaM1SVfJX0LywQQdq5RQ+4cOEDDU3ESG6jlZmWrD+SugQO1/Xp16gqOdICAMb0263V58MEH5eb+/ZWJ4su4+Zb+cvrpp/tKDoXnvNBVL/w1QSOmsM+PHzdOnznooIPUB9CgQQO5+uqrtfwEDJuoJfr60ssvKxB079ZNAdIyk/mO+9SxnpqqIEpf0TQAHWodoUng0+jdu7cCxTMzn5ZPPvlYtamMdeuVLkm+78OrsOqBGZ/zO+9A88GkhMYQSkwWSUiUho0aylPPPCOzZ82S2++8Qw455BAZM3bsVmsM2J7UZOWHN0OfTV1+oG853wGuezuCAg4YdgTVt/KdQSeuAQMRQw8//PAGjYEQxrw8dQ6vXr1amfevv/4qL7/8skYkYU6COVtUTM+ePWXxwkVy3bXXSvcLL5Jwbq46s/kH40XKxamM/R/GiA/ApF7s8IBFcrLnYA6HC9ShStE32uf3uvXqyfQZ0706QGgZfi4GQ4f5EgGFXT5rXYbs37ixOpuR5mfNBhhGSJ+bblLncb+bb5a+fW+SMzt3juRraJSW5luEZcmXX8qwIUM0uggJHm2j2cEHy3333ac+AMaMZoWDGdMM9LOoJJg7NIJuMG5MX4ybdnbbbTc57bTT1N+CyQutouauu6rvgVpIaCF16tSRp59+St599x25pX9/oYQ2gEJeBH4E2sGPAz2R/KENNIRp857s7BxJCqXosQ177LmHPPX00/Le++/LgLsGyt577y2TJk+WpBSvjtKWNIa5c+dJSlq6gn8wvDmoCRW17DZbmWRLyYjlNOlwK7eXu70ICjhgiIFloVJmQkKhsswwcHwMw4YOkZYtW0Rq68AULHxz/vz5cv3116tfAcnZEtpwQOM4RsLdd599ZMZTT0tBbq4yQRg2gAMYIMFjmmnevLmEUlPl799/VyDAIQ6zo2Q0jDcz00tKwzwCINWpW1f7o+cMcCG1cm6Nn3SnzDM/T+3w2RmZsnO16h5wJCfJpwsWyrPPP6d9/unnn2XgwIHSv39/6XTG6fp8JNGPQ28KRDLXr5OePXtorsD1vXqrlpBCuGpmpkYIEa10QffuCk7kDQAMzzz3rPYPbYbkPXwCjAdmDu1S09MlOyNDu05eB23gq0n3fSY/ff+9+mQABvIbvvpqiVx5xRUaCowZiYswVcAzrVKa0oRwXsCA96qfSP0PIqGEJMnNy5cWLVuo6eijjz+Wm/r1VYf/QxMmbNGUNG7cGH1XBBj8vA4OBYoGEw9hAgveI2Hk2ojPbwkYdG5jYAO5Lm41BRwwbDXJduwDZmMHGGDko0aSZ3CoVCLrODdXGSd2+T323FPenjNHTTHnn3++XHvddRoxA1MmNwDTyG71G+hnffv21USwYLgqzBDTEuGnRxx5pOCQpR18DWo6grnn5kl2Vo5XDTTX+wljxQTStFmzSEKdHlYT8kwpdmXn5kiK+h887vT3H39Ir9691Dk8ecoUvfftd95R/wOS/Zlndda27cyCvHC+hBJDkiAFsn7dWjUhJRR4kjVOd/wlmNRoj8inAw88UP5buVKZf6vWx2g38Hkwztdfe83LPfA1Jb4zLQ0Jn7aJtqpSrZo+hwMdnwyM/sUXX9BaSYS+rli+QmmDBqLZ2gmYi7znrXCemsF8OqSkpMr6dZlSuXIVadehvdx4440yZepUmTx1igI3DnzL+N6UxlCawLBZPr8pkHDAsGMZwnZ6uwOG7UTY0mo2WH45aCIgXJVEtZo1dpZ69eoqA8KEtGLFCmWOSP44mQkBxcdA/R5MPCNHjFBQqFevnvS7qa9qElUqV1YTDOYYfAxoIvyOtoD2gPMZRo0dn3fQPm1XrVpNI40s+gbTDQ7viQ8/LAcffLAk+ecOeIKqXzbaJ0zEvo0dhbyADz+S62+4Xs1MM558UnMccNL++OOPGl1UbafqKu3TD8u09hhZgYT9MhyzXntdafLfihWRhEADE55tc+yxKvnXbVA/Mj2vvPiSZi1r+Y+0tIiPwXwp3IhJCyf+LrVre2GsIgqSlNW+++5BcvTRrbQcBqG8zENqcor2FZOSgSX9zvEzpgEHkt7y8vKlSuWqkiCJMmrMaKXzxZdcIj/89KMCUcfTTtuij6G0gWGrwMGBQmlt83LXjgOGcjclRXfIHMkwMEw5ZvJJChG379VEoswC5o26deuqM5RcBGzhJLldcsklGo+PaQbGToJcg3r15bnnnpMxo0erY5aLdtFEPvvsMzUlaWG3Vq3UB0FkDtoI70IKJkELqZccB+zzJIItX7FCn2u8//6ec5rcApWSvXFZuK2Vlcacs271ao2cou2s7GzNGRh2//3KVPElqCYU2lB7SYHGzyAmuS+UmCAff/yxXHXVVVK1chVl2gBTus/o/1m6VE1C3HP4Ec3VbwINYf444O8fNkzBkyxpPjOTD6YgQmdJFCTEtXa9ejoGaGHO/yOOaC6jR4+Sr7/+WtvgnZjIlEapqfqT/AjoBTU0mCA5WYELU1xeXlgOOqip+kHwd1zQrZuOFV9RjV0oxOfRraw0hujV53h/jDCIUu6mA4ZSJmhpNxcdlWTtw3A0Ucqvwom0a8yO72A+77/7npbEILGLPAY+h6HBAPfYYw9J8zOR33vvPWWkaBKYqEicI8wT6RuQwAwDIyPuH7s9UT9IvUjFcC6YPL/DvGCqt9x6q0r8aCgeUwtrpIxKowFfCSYXQmYHDx6s0jY1k3B4f/7FFxoOCrjRHuYUM+1Y8prlM6CLwHgBNxzt555zrtr76U+l9HSPXOGwhu927HSafg6TrwnTFZEXnn1OhgwZotnVmslNsTu/hAV9xexmOR34TjRkNi9PNaPu3bupLgR4HNKsmdINhzomLorvYcZS05JfCJD5QWsAJKieGs4v0CS3qVMfVa3o1ttukzlvz5GTTj5ZaZhe2XMmb09g0La3sGgdOJT2ri7/7TlgKP9zFJG0I4XofHOGZTDbzqbsBBIvEjpMd/78/0nPnlepxkBkkibJ+YXvjOGoB9RnPvgYvGiniaoxTJgwUe6/f5i0PKqVMtezzz5b8xvuueduZdQUmtO4fezpiYleCYhKldQBTDE4+qASr0rHhaujYv+H4U5+ZJJWIMXBTZjqmrVr1YyCBE47PXr2kNZt2njnFES1YVnh/HzlpZfkrrsGKYO9vndvOfLIIz1bf+XK8sP336sv4OmZz0jt2rXlueefi1Q7ffH552X4A8Pl6KOP9sAsFFKAYzyAyIsvvqj+hxdeeF5q1do1UiuJQnoUGHz88Wmy7777KqCSiY2G9fJLL0n1atVl+bJlShtopeHDfhis0io7SzW8QQMHyeGHN5d5H3ygII75bPqMGdK4yf6FVub20hiKAwzBjjiQiBGGsY3ddMCwjQTc3o8HQ1WDv0ekSC8OVM0tdkSklZT+YN48uemmm9S/gHmF+kW++Fm4Oqv/POYL8hWIZCKpC18DuRLE1HMR8orN3yRgq0sEIGhIpg8wvAvfhoGC0ciS9JD6yQ/Ar0G5akwwF154oUYx0Xc0AABqxpMz1JREohoJX1y8OwKIAeIDiqNGjlKtB7CD+ZKfgC/EUxrCUq9+fX1nkwOaRDQY8gYG3DlAQcDqGQF2qqlYroaIaiOEn0ZKbuflydq1a+Siiy+SpUv/keaHHa4mKZ6hrtKE8Q9Fyp6bGTDi78jLlUMOPVT69u0njfZupBrS1ddcrfiOVoafgTDVYMHA7QIMqsL5S6KYC9kBQzEJFeO3OWCI8QmkJIUxK0uoAiiINoIpwuibNm0qBxxwgAcMAQ0h+nfTKDifAYmdiB2ib/BZwFjRFv7666+IHd5Kd1u5apgr5hMc23Xr1dVIKWPm0WczYL9fuHCh7L9fY00Ui5x77PeP0t5EEWGywcyF5B1klEGQNKYJOP7808/qE0BLAGBgxvTnoKZNlQ471dg50ieL4CKCCVOTnd+g4aV+qXDa5t3QDz9KMAOdPixZ8qX07HGlfn74oYdpFFid2rVlzarV6tcgZPinn35SzYpxNtynkXTo0EGOOOIIzWN4/725MmToEC3/wWcPDB/uZUtX8kN9/fVZCBgCB/VsyfkMOYmaisxDYkBz87PYLbsajSaYXe9pEwUaOUa4rRcF5l16hkeK10cVSnyzYVBIsXMt7LwP7mVdsi6IVFPfk59/Y2ZHE3CC52XYFo0IP34Cpq2Z4HkizJ0WcKR9OwNEEw698i+ab+O/GxPnhrM1vPtNW2TtsJbNT7alfJAYZyMbdd8BQ4zPqAcGftkEP87fTENsJC7bQNyrC9/fkPytQqNfIlrDSjmb2P87qIUYAwi2hy1eo4T8Uh3cT/ucyRAxVflSvgED0rPmEJjpSSVzj0FE+ucfygOz1VpOfrhnUFMI+l64xzKL7XQz2ov4OIJ0SfAcwJ7zd0MGdbANYwZ27gUACDgUBXI4/hcvXiQ39emjTme0CuomtTulnUZ7cdFvciOIaOJ4T8xiXy5ZIk8++ZTMmfO2jpEKtg+OGKGH9Rj3Lc7RnlsCBsZJ9FOST1PKdjD/xjhtnnJzvcOKzN/gpSTSlQTJys6SSqleeY/Vq1bK8mXLZbcGu2k9Lrvee/ddTSLEVEc7/y5dqhFsBrY8az4ock5gupEoM3/9aAVePw/E1gNr0Q5SIv/GDjuyEukAGWMEdCtbvauCAq1/hbmS9+ITA3RZD88+84yWY9cAA97rrwcDtiDwBw+lcsAQ44yyInefjWeSZfRCjjZF2L26+f2D6o120fdu7PDdEOcflOKDtPcyor2zFqJNImZzD95fZDJW4IboNvjbzjcoNFafswEywXsiABhlCwmGAyszijopzRi7SZ98X9jXQTZztvz8009aZuTzTz9Txr9rrVpqgoPhwwi9MttZqgGRxIYTnzwQchhwet/Qp49Ktdk53ml6Vj7D3hXplz8+JOpHp06R4gBDvhY69IQHwCtiUlRmHY6cnqfADKMM52uNqyA48Ow7b78tD0+cqFnhaI7du3XXA5mYB4IaYL5ElLFeSFCkDpcWWgyU6GDu8VVhSuNau2aN/Pfff17GfCikSYEIAvyE2deqVUv7i9BB1Jlql75gwfM2f+3bt5eWLVtG6nj98ssv6hsC0KtUqSINGzUSTjekNAxBFVQahoa///mHBjx4CZteQAV9oQ/kv1BR1/ZIReItTmOIs9m2ME6GZRnQKj0HfADRmdQ8YxKzMUBLpAs+Z4zT1O0gkARV7iCj3hTD53OTiC2j2ZLXDLT4O6hhGJO2sUVPXcS8FBF7NzjWffE38oiNOTi+4Hu50QAxmFhnDVifAYVU/8wEmBelQ55/9jmtwYQzmvvIgwAUDKjWrV+vmsURLVrKhRdeJAcedJCsX7dO0tLTPGm+iIOZSgoMWq4k5B+rqmVEzAyU4gUHFITVV6IJgphexDsGlp+afIjGF86X5f8u0xwQ6lHVqFlTlv71t1x22eWy194NlVEDeCQi4sTnIkGPIowatssJgf6xsBEtwz87gwx7ijNaLgwAan4kwBN/DZI+tMXHRRl2+srcmB+I+415A1gEMbBuLKkQEyBaH9FjJBEShQZ4Azijx4yOzE1wz1Chl9pYVNd1wBBnTLKiDGdL0nZRdIhmgpti+sakjClHl+Yo6jkDCWUqvmRvvxf1vLUR7GdRqntQC4n0xzd7wcIMzLzCcYVVAyRjzkDgKpwg5711a2zJhe9FS/O1Ez+rOSczS4Hh/ffe86rYrl6tkigAQQ0ptIhDDztMGuy2myQmeiG9dDeovdBXA0q/g55zvwQaA5pJcrJ3elxeTm7EBn9qhw5aKbZyeprkUkY9nK/9e2rm094Z4f4BULz36yVfKaOn+CHFnWiLo1N79eottevU0RyXFi1a6D/mgbwZGLklDdIGkjuBCoRK792woYKFmZjUr+IHH3AvGgMh1uTbAJaYmcjJoZy6SfaYkfAFkLsDfQFbEzbwhxEowb2YkqjDxXdE53EoEpFk1KOidAjPGvgbKJGTwwmJRPQ5YKgonDQOx7kpxmbagTHaIMMtykRkpIlmwkGSRZusNgdMwe9Moi8uEw6aIIrSQpTRhT2/CCfJFbrIqCbnwJycUSYkJGJt368tFGTCQY3K+hxMMCz8Io9TFzKpUXSWwnx23GomZ2QnRE61w1zjhQ17iIDzlJPaCs1N2DvLISnkA4eZuEoADLwl4ldJDKn0TdsdO3SQVStWSHZ2lhemmyCya5068vrsWVrLyQCUnIsVy5ZrGDAJkBRPJCmxe/cLpdE++8outWrJ4sWL1UxDmDCaxzMzZ2riI3TBCQ9gwLihZ+vWrdUfoeP1I9nok/l0mAsc9oQAI7HjdwAYiJKjJIvOt39MKsCDLwFT0int2unYOAWQQokcJoWmQAAGOTGEMsPoiXAjZwbAYB1oJro6072oPdpHU+EzTGIOGOKQYVakIZnEbAwm2uTD98b0NiSIeRQydTw6V6Coz4OmjmBylL4/kMhGu5uyzVtfNdo2EfbscW7j32YSs7FsinEHq4MWAqwNKcOewK08yCss5+/0TS4NTCeq2fhOfW6kcqz9bZE6FA00xk2/FRxUg/FKgafisIYmvlZD7gPnUXgdKthgMiIaRgofSxp03tv9JdEYzJQUAWOKiPia0yknnSQrOOAoO1uqVq+mOSR169eTl195RVLSvGKAmMAw3dBfamd9tvhTOejAAxUIjjm6tTRv0UKZO6f/HXfccZo8CQgFAXXAgAEaMk10mGXuoz2gCRggACbDhg5VcMH0NG/uXM2kp44XfeCkPZ7h4CUc1wZ2vIvPoT3+B76j6CLaSpMmTXQeyUUh6oxET8xdHFnLOteouQSRF154Qe9FiyADnTPSeYZS8G3atHHAUJGYaLyMdVOZ0R7v8ZigbdKgRBo0EZlkbt9HTDI+QzNa2TkMxqRVqwg4Yz0J3GPAdkVrE8G/tX+W2evbtHmyKA1kUxqMmVzMlBR0pFsEDqI5/Szkw4jqJ4xfgSwABjBrBdcEj3EDXvzUkMgkj8EbYHgn1GHDD5xy4I8vqD1ER4YVQkOfaArgvuM+QMgNdPXDVadOnSLji6quiipSqPw2ayDfc5rTpwJR80mH9u1VY9DoMs6RSEnW3I/XZ82SkF/u295v4ak/fv+9Oto5YGn33XfXsyToK4csoQngsMWWb9ooY7HwXxg3jl5MajimAQGda3xJ2dnKkJ997jn9HWZtjmrAAFMVzB3fgGk/pjlYoiNh1VdceaV8+MEHWuMLjQGTFFn1aAwwfkxJ+Bg4L8Sc7fQd3wghyWgI5MIALvzOZ1xFmTbjhYcUNQ7nfI7n2XVjixsKRIMlzJGopPFjvbLb78+d54XEAl6BKCAPqtWUHpGyzUbfqeNpsvSff/RgIXIYkObJxibREWBBk9PLT6L0pQz5888/5NNPP1NGjdTPudo4eAEFwlV5lnLmMFOc0jhyMSPhzOUn79cw04DgARiQ3EdiI99TzBEpHhMUgGtAg9mI8zAAC/oLOBEJZSHFForLOzkAiovoMLQKzIHUyQIc1IdCvkpBWB3a3IOJCVMT9+DLIBkSECsq8i4S6BA3K6zwQBwwxOnEumHFFwU2Bwwwzrnz5kkqB/VEAQOuFhLcYPFB7RLJHamYaCPs9HYIE8ybQ44iOQF+fonlE5ABTq2p448/XkEEZzJJfISGctofbfEePiNjHeaObZ+QVBzxMGhKqeuxsD4waEXa1FTVGAAEGD5OZcDGig4ym+QgcGASJiu0Ay6czPgUMAHhBNech+RkjUwCYDBDWS0v3ocfgSx7Qog1CqsgLA888ICawKhui5ZAHwC1YFKlHZAVBKloc2w8rTgHDPE0m24scUuBkgKDd0425rANJkXzPSmzwxSkhwYVaFSQJZPhtNeQUEw3gXIrZ55xhvoaYKxqUqPoYG6umm5wKJM8BujAYJH+0SIMkGDSRDbBnCmDApMnJBVQQOInbJVjWK2+lEWwEfpKPgPRRE8++aSXBOhnX/N+/AE///yz5jnQtkZRff21/rT8EcunQQugZD2AhqZAzSoAC0AkuolSLWT7A2CMg5wNDmXCdxFttg0mw8XbwnPAEG8z6sYTlxQoKTBwOhyhqsGgLBgc/2DIhJ56x6RucIZjJrGscSOmnRVOHgDniiNhWxQPjmG0DEJUMcfA5Ak1xYdAGRKcvAAOmgFJgJxOd1aXLvLXn39q5BJSuJVXQZOw2ltmwqG4IUweMLnssss0ogh6oBFgWiK5jtDTLl27Fiq1YU72YFACR9qiITB2NTWZuSzKF0e/AAPegamMy4BgU0md8bTwHDDE02y6scQtBUoKDJGSF4FSJIWI5If1FvoskHyozNAP44S541fARMQhRWY2Qhon4ocIHitNwkFPHG7EGRtWg4i2Tj75ZC3oiC8gWEPJ82V4TvNInaRg8EQoJCuWL1emDhCZmYd3YwLiPA8uqywcDWxoQAAeJxICWPgO7MhZyx/hJ5cBntGEfvOsAql/RWfMx9vCc8AQbzPqxhOXFNgWYNBAJItKElGJ3LKG8T5gKtIEr0BZ86LqZFFbSOsZwSATElQLsDLlMGIrmmcTQBswVKvCq4cz+bWPeF/wGXvWQMEYeaS4Ikeqrlunvg8AJWjGoryFmcDs3cFaUPZdsEyKOo8JlyXk2AoABlZOUZF5fBasmxWXC80flAOGeJ5dN7a4ocC2AANEMOcz7VgFVZgrPoZgdV6915zC2dmRkhZ8HgSLoLQfKX7n1+pSHwYJc5T2CEQe8beChC952/f2MxqMeKcBRaHvrCZYVDg192uyYFTEk1VWVW0mUDAy+mTB6ArAOuZArSdLqlMaBUKy42aRBQbigCEeZ9WNKe4osC3AQHnvSn49J2W2vrPZJGVKtwf9CtHSdzRTDh7yZFFDhUAgWNrdn4lgGe1gae0gsw6Wged++47T8KzGkpXttkRK+lLIJBV4t2kNlithWfARDaKAvOcNRSSjnctBmge/MzNSPIesOmCIOxbiBhSPFNgWYDCNIR7p4sa0fSjggGH70NW16ihQqhRwwFCq5HSNbYECDhjcEnEUiAEKOGCIgUmKoy46YIijyXRDiV8KOGCI37ktjyNzwFAeZ8X1yVEgigIOGNySKEsKOGAoS2q7dzkKlJACDhhKSDj3WIko4IChRGRzDzkKlC0FHDCULb0r+tscMFT0FeDGHxMUKEnZbc6giJzcFxOjdJ0sLxRwwFBeZsL1w1FgMxTYFDA8NHaMJoIFz2MgbUsPFfKBIepUU31L8OQ7R3hHgWgKOGBwa8JRIAYoUFxgABIip83p6XOBw3YYZ9F/xgAFXBfLkgIOGMqS2u5djgIlpIADhhISzj1WIgo4YCgR2dxDjgJlSwEHDGVL74r+NgcM7hDAJwAAIABJREFUFX0FuPHHBAUcMMTENMVNJx0wxM1UuoHEMwUcMMTz7Ja/sTlgKH9z4nrkKLARBRwwuEVRlhRwwFCW1HbvchQoIQUcMJSQcO6xElHAAUOJyOYechQoWwo4YChbelf0tzlgqOgrwI0/JijggCEmpiluOumAIW6m0g0kninggCGeZ7f8jc0BQ/mbE9cjRwHnfHZrYIdSwAHDDiW/e7mjQPEo4DSG4tHJ3VU6FHDAUDp0dK04CmxXCjhg2K7kdY1HUcABg1sSjgIxQAEHDDEwSXHURQcMcTSZbijxSwEHDPE7t+VxZA4YyuOsuD45CkRRwAGDWxJlSQEHDGVJbfcuR4ESUsABQwkJ5x4rEQUcMJSIbO4hR4GypYADhrKld0V/mwOGir4C3PhjggIOGGJimuKmkw4Y4mYq3UDimQIOGOJ5dsvf2BwwlL85cT1yFNiIAg4Y3KIoSwo4YChLart3OQqUkAIOGEpIOPdYiSjggKFEZHMPOQqULQUcMJQtvSv62xwwVPQV4MYfExRwwBAT0xQ3nXTAEDdT6QYSzxRwwBDPs1v+xuaAofzNieuRo4BzPrs1sEMp4IBhh5LfvdxRoHgUcBpD8ejk7iodCjhgKB06ulYcBbYrBRwwbFfyusajKOCAwS0JR4EYoIADhhiYpDjqogOGOJpMN5T4pYADhvid2/I4MgcM5XFWXJ8cBaIo4IDBLYmypIADhrKktntXqVMgLz9fQqGQtpufny+JCQmSmJgoubm5kpycHHlfZmampKWlSTg/XxL4LyFBCqRAEhITJRwO6308x+98p98XFOhP2kpKStJ7+Jt7uJfL7rHP6AMXfcrJyZGUlJRSGbMDhlIho2ukmBRwwFBMQrnbyicFCgLdgnkCDNEXzBpGHQEFgCMnR5Jh2glSCESMAWdkZEh6enqRIGAgZIBkoJCdnS2pqamFAKO0qOaAobQo6dopDgUcMBSHSu6ecksBY8pI9UjzMOu8vDyV8AGE9997T6pUriKHH364SvfvvPOOSvLct3r1aqmUnhbRFA444ABp2LBhZKy0Y5dpE7T54osvSqtWraROnTr6TtMeDIBMa6BvQa1lW4jogGFbqOee3VoKOGDYWoq5+8sdBbKysqRSpUry4IMPSrNmzaRt27bax/y8PHns0cekdu3a0q5dOwWGbhdcIF26dBGeSUtPl/xwvmTn5Ej16tVln332kUaNGimgvPDCC3LyySdL1apVta2JEyfK5Zdfrt8NHz5cTjjhBH0XoEC7XIAEfTj00EOlTZs2pUonBwylSk7X2BYo4IDBLZGYpoAxzOysLJk4YaI0bdpUWrRoIX/88YesW7dO5syZI/vuu68HDOGwnH322bLHHnuoRgEjx0eB+Yd2OnbsqM/C7Hv06CHDhg1TwOHeyy67TEaNGiVVq1WTuwcNkpNOOkmOaNnCAyDfVIXWcvvtt8sxxxyjoEKbTmOI6eVVYTvvgKHCTn18DNzMRtmZWSrJN2/eXE448UR58YUX5Ouvv5YvPv9czjvvPOnQsaNkrFsnV15xhQy5b4g6ojOzPU0Dhg4Tr1mzpiSnpkp+bq707t1bmfyuderImlWr5MYbb5Tx48cLvocJEyYo0Bx40EFSkOA5oAGTtWvXyjnnnCNNmjSR++67L+IULw1KO42hNKjo2iguBRwwFJdS7r7ySwHfA92zRw859thj5dRTT1XHcU52tsycOVNNSUcffbSkVaokAwcOlGXLlqkfgogh/AA8jlaAlH/KKafoOK+66ipl+AAH1xdffCG33nqrAsqkSZOkb9++anYKpXiRTwDGU089pe0sWLBAzj33XAUpc1BvK/EcMGwrBd3zW0MBBwxbQy13b/mjQLhAmTyMs3PnzmomGjFihGoL//z9t8ydO1eOaN5cWh3VSr766ivJzslW009apTRZn7FeJX0AgogiQACtAYZ/0003yTXXXCM1dq6h7d9w4w3qcOZ+GP/VV10thzQ/nIBVBRYACLMVWst///0n/fr1038HH3xwqdDMAUOpkNE1UkwKOGAoJqHcbeWUAgUiebm5Mnv2bPn+++9lyZIlytDRCr779lv9rG2bY1Vj4J7cPM9sZJFEaAwm1QMAAMtRRx2lpqTB9w6WnXbeSe+/8sorZeiQobLTLjXl3rsGqSkJYPjtt19l3Pjxao5CG9FciXBY/vrrL+nfv79GQ1133XVKPIuaMkpGM/vNUdgBQzldf3HaLQcMcTqxFWlY/y1foc5i7PrY+UePHq1aQ3JSkjzxxBOqBXTo0EGSUlJk3OjRsnrVagUGNAd8BFyYgHA+NznwQJwGcsP116vpqGatWpKVkaHO58mTJ+t9Q4cOVXMVvoS169fJwkWL5LjjjitEcqKeAJqFCxeqM9qAiJssimpr5sgBw9ZQy927rRRwwLCtFHTP71AK/PPPP9L/5pul2wXdNEwVZj99+nSZN2+eRhW9/tprUqNGDTnplFMkNztbuJ8IJhg8Un4oKUnNSJiC0BROOOkkWbt6tfTp00elfcxMMPhZs2Zpu2gXABBAc3CzZpJfEFaNAi2B9vBt0Af+5tn169erphCdLAfRLJqpOAR0wFAcKrl7SosCDhhKi5KunR1Cgc8++0x+/PFH6XTaaZj7lXHDoOfPn6+Mfdq0aVK3bl058cQTJZSYGHE+G+POzctTxr1y5UrVOtoce6yO45OPP9YEOCR9DWvNy1PHNoBCrgK/N2zUUG7u3199E6tWrVLNBI2FPsDIuZff69evLzfccIP+bWYsAKNy5crFppkDhmKTyt1YChRwwFAKRHRN7DgKqNQfChUy1dAbq1P05PQZmqdwxplnSsb69XLO2WerSUhNSfgXkkKqNcDQ0Sz43BzStAEzx/SDxM8FQAwePFgjmI444gjVNngWcKAflvVsmdfUaCJ5zvoIg6fPaBPR9Zw2R0UHDDtujVXENztgqIizHkdjDhaxg2kbY+cnTHv2rFlaEgMJPzEUkqFDhqg5CUat0Ui5OcrscRofeeSRaiLSukqBQnnRhfUIVyUR7qCDDipkDrJnSKyrUqVKpDRHUUX3trbAngOGOFq0MTAUBwwxMEmui5umAKGihKCmpnjF66yEXpAZI5kDFJiSuAPNIb1yZe9nlcoKICbBW0a0VVG1SqtoDVxoBuY8jq7KirZgmc5a6dU3QwWBJViFdWtyHBwwuF1QlhRwwFCW1HbvKnUKRFdXpeyFFbZDE4D58jdXBCx4iPpGOI0LvDwIK8Nt2gISPVqEfaeVWH1TEuARZPY2qKD2YiBhdZTMtxAEk+1hSgL4GJOVDS+q2mykvwEgjZ4Yo+vGtWpLfQpdg+WQAg4YyuGkuC5tOwUigFEQVnOPnaewbu1aqVKlqnz+6aeyeNEi+earr2Xp0qXy77JlmuPAvYACjBXfxE477yzVqlWTvfbaS+swHd36GPUZYJaijHdiyDunYXNXIc2igIQ4yoN75znk5eZJcvKGNooCHO7blMYwfuwY1YTmzp0nKWnpJEtE7rVncnLwaXgZ2l6fvfMrgheFBINnRyh20k/xz63wdTGAwgBWQdg32Vm5cQM7e7eVLAmazvgumEti4BnMKQlqfNaGPRc8L4PxhEJJWgeLvng0zZUkPYujQOnhrq2ngAOGraeZeyIGKLBB4oUJhQUnMA5kgKFvn5tk8eLFykDCeWGplJqqTAXmZSCiZbaRvBMTJCdQ0huA6dGzp3Tp2kWrs24wXhVNlOiQVGO4yjglIXJ+hF+gdZN8rNjAAAOnsUQPIPTXRI85KoMNABnjx/muL01gnF45co/xJnoHGQkRWbmSnLQBWDTqKsCIo0cOOJjfxr4zOhiTj/68KOrR/yCoB8ElciBSYkir6BJAYIBgf2ubDhdKtFsdMJSIbO6h8k4BA4aC/7d3HmBWVdceX/dOlyIgEFLEiBgLxv4sCbGhvtjRqImCSIlRsGLDjmIvyBOGprRBqp3EWECNsYPoS/IwsWNUBAQjfeq9932/tc+6s7lMY2gzwz7fN9/M3HvK3uvsvfr6ryS+/kru8PRTT8mttwzWWEBWPEs67txROnXaTS2CFi2aq5XAdzChNWvXypKlS2TZsuWa/opwgYFyDn0dYFx5BQ5LqbrDZ+i+FuyfbxqzuX/sf78orr6CAc4I308/Q2KKIZUbNRRiHEloFKXYOpeaSDKFSw57ofLgs0S5w5jiIDbDAT20WDCqKPfH7Xe0szvZXPx5850fu/HjNSbUfLdguilSqnorSK0jBF84NpoCQTBsNMnCBY2BAr7FkEi4WANAd088/riMe/gRad26tQy5bYjstXcXdTNZIx5jbsakVWPNzZUV338vTz75pIwcOVIZILhIbXbaqc4aqYL1pVJp+A1jjtzfb/ZTFwFjjLJo0kTZwJWUYTG41qTM36XhStJp4WjYak5ErhZnATjLgbHhWlKGn0yoAK1IOGsDQWHd7WoTiL5ryK/29l1rJmAQNhbw5zNfuCAEENZGK6tB4byykkohh8Xgx5esQ19jWK8NbYxBMDS0NxLGs1koYIIhqULB+Z5hKJOLimTEQ8Nl8ODBctJJJ0tWTq66mkybVz91VMmsjDzuitUss6lXr17y6aefyiuvvKIFarHo3rUxSb63IDj3Sz/P84FXZRVYbKS+FoM908ZXUWb+d5EK6jRwLTFnrAqEFPEHz0zItHIYx/LlyxVtFquqVatW2pjIMqxg4rjsbLz8D5O3bC+Y+2OPPabNkmxu0Pbjjz+WuXPnyrfffqvXE8857LDD0rEeGz+giBwULe68886yeuUqBS0EQfett96SE0480b1ri6UEV1K99lMQDPUiW7iooVPAtxhKSoo1zRT/9swZM2RU4Ui59957pesRR2qRm6WVVqe9m1aKVn3xxRerW+mll17SIDS+/NqEQmZQ1deI/RhEdQKD8+srGJJJrBTXZU6toSjonR5zMiUpsrII1qaSlcHrrHi6AI/rrB0qQIGLFy/Wmg8Y+KJFi+QfUc8LmhdBS6q658yZo8/DEsBa+NGPfqS1HwiBnj17yvTp0/Vc/geufN68eekmStwfBFtwpkaNGqUCxGJE1JDwHqkh+VXXrvLqX16VL7/8UrGrAC2kmVJeBJWufb3znNsrHBtHgSAYNo5e4exGQgFfMJCdAjNRHKWpU2Xs6DFavfyrXx0h8ZycdDYLU8N1Ylp2oiIh2V4GT/G6dXLVlVfJggULZMaMGfKTn/ykVsGg94w6vOG8r8yYEVm7Zo00a9FMg6cc6t6JjlSSlFNn6TjvkEtBtYP51MWVZMFnP1XXxvDOW29Jfk6urFm1WntfAw+C5n/ILw5PP9eexxzAkyKDC/Ra8/EzJhj5wIEDtf0pGVx898c//jGdMotgwMIqKipSNxTQI/zNmEgG6Ne3nwoKgz63CnLcdp06dZJTTj1VkXIBRuRehkmFxUaL1YULF6pQuemmm6SwsDDKSIpGHiyGeu3YIBjqRbZwUUOngB98xlVkro5HJ0+WwuEjFGCva9dfqWCoSCZ0OubXNiZMRg58xbRtXEz9L+qvmuyrr76q1c21WQwqGJThOqZvLg6Ewj//+YG8/957smLF91ozgftk3/33kzY7tdVMS/2xGAAZQvUQDJnXWFYSwqH7aafJssVL1F1GfIEsrLbt2snTs55xzFWzldz8EQxTpkxRZt6jRw+NP/iV3n369FHtvl27dmlLw4r8gAyh8dHEiROVxjBxrAStTi8uUQuCPhYdd9lF6WP3Ba6c77ThUXa2rFq5Ut5//31t2frTn/5UW7aSBDBr1iyFSwdine56nKvWAkHyIBjqtVWDYKgX2cJFDZ0CmTEGw1SaOmWKxhgeeughOfTQwyQGsF1VzIO4rCmdsZgydywI+jTgSnruueekXfv2dWM8yWg0sZhaCTC3oUOHyqKvvxYC49nZWWrREGBFC+7dp4/06t1bkhVYL3Fn0cRkPWwlzp9cNElGFY5Yv46hiuAz7iQys7TCO9tZSFR9n3XmmbLk60WSk5Wt1kJObo60bd9eHn/yCSlo1izNXMvKXIB31apVcvlll8nPdv+ZMmtcSV9+/ZX2uTjyyCOViVvcAKFgqabEDYAwh2lzcB5CAvceove9+fPVBURCAICDCBL6ahCHOPPMM1VIITBuvfVWPWfPPfdU66Vfv37qtnrzzTc1HoGVglWBKymdThsEQ722ahAM9SJbuKihUyAzXdW0ULMYcCVhMeTk52m2vn/4/1mWEtk8HBddeKGA6Prss39Szb7W4HM0EBiVBl5nzlTEV45ly76V4nVrNYAL08UfDwOG6Z9w0okyePCtamloRlNk0aTdXImETJo4odasJCSKY9BR2mY0HlJWjz/uOFm7arVmKinOVFZcdmzdWl6Y/aLkRn56HWgklPgzKxbXGpAPP/xQ3UI/+GEH2X///TUYbHAg+PwvvfRSad++fTqTiDkS1+HAYsAVp2nBJaXp2gkwrAgk8/nuu++ehiph/NDm9NNPl8mTJ6u1gmuKJACExL///W+NMZBQgIBRGlqRWxAM9dqqQTDUi2zhooZOgcwYgwV2yUqaOH6CMpFuxx2nTLemg+/VrQJ0Rlm5+sc/+ugjefbZZ5WJ1lhZC+pGVAgGo5r94ovKHJ955hl1o/Tsca4KB6wGg94oLS2T1m3aqGWyas1q6du3nz6jgnhHFIOwuUycMF7GjBpZq8XA/KwiGSvEKp+P69ZNvvt2mV5v9Qs7tmolL736F0mQ+hmPS0lpieJKMT4OXFGk7sKcNWifFVe/v8UWcNkRcyA+cMsttyhDtzRUGD5uIJoeEVPAJTf37Xf03oyPeeGew7KxYDNCYa+99lLYdAtS464irkDPjC+++EKFyYknnqgxBgQDriR12WFp1ZIc0NDX8bYaXxAM24ry4blblAI+JAYFXBZjKJqE+2Wkwmbv06WLMr3aBIN1e4NJjR83Tr777jtt3AMTxRVVpT/J08zRYNeuXq2a8sEHHaSa9No1ayWRrJAZM6ZpgZlj+q547pxze2jTIHzsk6c8Kp13/1lUclCJ+eRSb2t3JVnwOV1UlnDQEbi0cCUtXbxEA+zcjxjDT3b+iTyN4GI8kbbNvHEDvTtvnsYjGCNBY2BEfvjjH+nYYebQmMA0qaN33HGHxg20kDDqkWFpq7iIEAwwfyBJOIfrcaMhZDjfR7hF6BDoZ4ykytL7gpgC/TL4mwNhQdyHezsrJxp8sBjqtc+CYKgX2cJFDZ0CvsUApIM1z5ny6KMybOiDkX8bmIjyGqfiA/ARIIYR4RsnXbVlmzbKzB1wRMbhofvROY6CuMG33KLNg9Co8c//938fLyMLh2sdhYPjSErLHXfUdqTfLF4i1113nZx77rnyh4suEvHSTF3joIQ8OrlIRo4YLlnxWCVWUkaMwdJV06OLxkUXO6ynlStWaAorWjuMt1Wb1tK3Xz/JzcuNYt8x152OYG52jv6NG4rsJOI0d91ztwrXNIJtVpamsJI6SgwAgYTLiR/cZfvtt5888MADGmNQ11MypYkAaP/WyIixpl140d+a8pudLd8sWiRjxozRQDMZSzwXQd2xY0e15nBZabpqlGKbm+9Qd8OxcRQIgmHj6BXObiQUyMRKYtgwPwQDFoPi+ZSXSz6uDmWBVR8KakdOf8Q4EQpovs8//7y0aUfwGUyhmgVDsqJCu74RX0AAtGjeQsj5b9myhUyb9qiUl5cpk4Thr1y1Spo1ay733/+AXH3NNeq/Hz12rOTk5q2Xsko1M+mqzpVUvWBwbhyX4qQYSJ4Io8DNajhUyc7Kcr75CHDPKKJuKLKqTAtPJlUw3HXXXfJQ4Qg9zZBssS6wBCyGALPnh+521H2g6RN/4HueXbKuWMhoIuNJq5azsqSkuFjyQbaN4NLN9YUwu+qqq+SMM86Qrl27pqE5EDpYC6+99prcE8Ux0m8zWAz12rFBMNSLbOGihk4BY/UVynQr6wMmTZwoI0cUumArk4DxpxHsXIaof6C5qmYbB1rCWR4wMFxJbdr/oHbBQJVzIqHa/0tz5igz3G/f/eTBoUOlf/+LpNuxR8lOO7WR3Nw89b+PHjNGGfmQIbfLlVddJZ07d5ap06dLdo4r1LIgOtbF+HGPyMNjRtcoGNSiUQyjiEOmXPosn1nspJKJuvRUcwsZvLj66r14Ced//umnGke49/77lJn7EBY2Rmhs9LO6BwTHOeeco9XPWlCYEs08wmJA6HJeixYtnGVSVqZZSFgGuL+gIy1STzjhBK1fMJgRfhO3ISA+aNAgBTc04RLSVeu3U4NgqB/dwlWNhgKO1eMKgdE9WjRZ8+1xh2jbHqp9PcHAub5wgOGpmwXmmuWCtLiUnv3Ts9KqXbvaBQN1DOXlMuS22+S5Pz+nzJAq4Guuvlrmz39XunTZU3bt9FN1DXHviy+5VN1VWAw333yzdNptN5k0qUizk/D7+9W84x8ZJ6NHAbvtWwzRBCJ0Vb+OASbNXA2e2kmaDLwkD+LD4hJqRWTnpAPpWED0yKZI7bIrLlcBY82OLNAM3fR5ERSIWl5R72yC0kOGDFGBSzCc92FV0tAagcD1xDIANyTwbDDnpLJyPkWGWnkeYTd16dJFg9oE7tM1DBHKbKNZqg1ooLEUKz4cgQJNlAIwMRhqErdELC4zZkyXYQ8OiyAe4pJKkm2zfvGYTwqFbYga+WgRWDKpmTPPPP2M7NShQ+T7r9TGqyJjoqxMpk6ZKmNGj077zju0/4H0H3CR3HDj9ZKd4+oY2InUSmA94Ka56ZabVTMecuddkiJoTBV2BHyHRkwsAsFA5tPTTz+t7ppmLVq6jJycyh4FPoMu8brdcV08zj233ctnDLUdKtzMjRXhTCFgfbwpa+ka+i/URs26fR8EQ93oFM5q7BSImN+UoiINmjpmiRXgYKmrOzhPM5pSKVm7bp1zcyQSMnvOHGnRytJVM27gM1oYXzwu//7sczmvZ0/VakFpxWK57rpBct31g7Q1aW5ObhTAzVKXimrVtw+RO+68U448pltlFXQqJd8uXaqCgIKub5cu0XRXmCfX7bbbbnLkUUdJ9+7dZaf27XTcDMeKzWxoxSXFUpC/g4s5bEPBUOuyqq5RRYT9ZNevJzzU7KssKqz1GeGEDSgQXElhUTRtCqREU0WbtWih8ywrKdGUSjJkKKL67W/PTs8/E4nUNG0EA+eDw0Ogk1RXMoUU6iInJ81Xq5Qv8CeyesrLNceeiuNOu3aKMn1KZfTokcrUXde4uPYPwHrgXPL2eSY8DhRYgq/UT4BJtGLlyqgau1za7tRGe0cYHPWq1au14Kx33z6aIqsxhqysdM+EyupkoEJq70DXGBeIbyU1xvFv6zEHwbCt30B4/lajwNrVazQ+ALOkavakk05SX7cvELTQy/Ou4o/HZ83n1BageV9zzTXym9/8RpE7nd3hDl8w+H/D0EmhXPn9Chl07bV6Pemql1xysXyx8HMpo4isoJmUVZTr57iusBgOOeQQaY+7ii5qZeVy5113yRNPPKG+d3CCsEAOOfhg2bFlC6E2mhoAsIM45+NPPtGxYjlcceVAva9l91S238RDEwH1bbW3UP8HBWZff9pt7JWxpL8LNvbqcH6gQAOngGtn6TKJ1GIoK9PUxmXLlskBBxwge++9d40zcBXHFICl5E9/+pNW2R511FGqkefn50l1HvKqhATPBqGV6mdgNcjJz8vJTncug5HjrkIgEGOgUEzhIPIL5N577pGnn35G3Vr9+/dX4RaPxZybK1Ehkp0ta1as0MA1cYQ///nPMmXqVJ0v7quLBvTXc7VTW+TXj9FrohGm7Tjn2PpHFQnDDXxlNuzhBcHQsN9PGN1moIDCXnjd07il5d3D8GuyGEjzRDjAVNHIC7xWnr61sCGjcp8A451MJBV2wuCkyfMHbwiIjL//7//K4sXfaFomQurXv/61HHXM0a5iOILAePmll+Waq6+R/PwCrSg+4ogjHLBcRXkUPHZxjKWLFilAHcIh4SHKovuNKCxU4Du60bmDbCTNy2rQIYaNff2Zem6me3Bj77e9nh9cSdvrm99O5u0337G+CJkN6Wsihd9IRxl91FshXdNAWuYG2qv7wKyGdNon1ou21HTw22jz2VlxLSij2AwmlkXNBe4sICoi4L3evXvL558vlLPOPEv+8Ic/SIsdW2q8wSGlxiRVXqHpolT+/u1vf1OhQsUvyKM8G/cZQemiyZNVMJCpxQHkeN3gYRvRYslMsqwps6ARTWtrDzVkJW1tiofnbX4K1KW6NUrz9Bm9/m2FX7UxEED0YOz0bzDkzoj9VycYVC+P8vdh9gl6L5M6SwqtAryhsdPm02UVWVtRFST6nSg+0YUXXiht2rTRbCbL3Xepmg4xNVlapjARdDdD8IA51KnzbhqLYMy04WSunHPAwQe7jm06joTEsxEOjegI2UZb5WXFUmUVDTlZbasQITyk8VKgyl4KNUxn/cWOh70mh1BtdIlJSgXKhumqdZFV7u4pSVH+Gx1+8BsBQVYSuEJnn322Bq21+YwdUXHaG395Va699lqX6VReLvfcc48cefRRKiT4HywisplosIPFkVdQ4OoCuL72MoLaiBC+b4IUiA279/4gGJrgi91eprQxi3dDIaK5pPX2srvArfPTV3V4/L7K7914XCjV3E1pYcHnqZRmGdHo5oYbbtAsqrwIGgPGTi0ENQ2XDLhYexIAcX3KKadoUxwgPBzyq8iMqVO1doOKa+IT3BdLgthJfi4gc3UXY9vLutre5xk7eN/9N2Zvbe/0CvNvJBTQRV0Nv6tML3WCof4VXk4w1NTopyZy2Tj8DegshmTUUjOZhooAkfSII450hVtRq01qKK4eOFD++te/qitq5513VuuiJX0irKI4HpeXZ89WDCFLU8WSwLWUl5cvpcWljeSNhmFuTQrEjj3y6CAYtibFw7M2GwWq03NNKNS+sM2NVPuI3IulAAAdAklEQVSZVQ/a3EibpnFXJRi4IwKCTCiymEhfpX0mLTclkRDJypLJEydqK0viFggGOsPtsddeis2EWymHvswVFdp687bbblMrgVgFgWq+z8vNi9BWN238m+2Fhhs1GArEyopL6rsrGswkwkC2XwpU6a6pBuUhvdDTfNAJhnqzxbRZUu87pN1I9gYdNLYTCvzceeedytjpy3D5wIFSTiObWFy++PdCOa9XLykuKdUsJKCsKboDWdQwPugDQYoskN8ErsFdosuZNcIBuju4kbbfvVPTzEO6algXjZcCtak0NWEgpVlibTepjTxVSKGNkRPVPt4JLdxAxAzQ9ClqIyZQVlaqjH4pbUGTKTn8l7/Q5jcEpoHp4MCKICMK6+C8887TVpgU1nU79thK9FEVQRsz2NpoEb5vKhSIJVwXj3AECjQ6ChhLq4q1+Yt6gwXu8fLYxqY1eVRyz61++9S2sdJs2UWf1+8fTZxBUrLiu/9ovwIwmrTuIdtVca9dt1atg9Zt28q48eO19aVBb1ifaWolsDboBUHgefLkySpgrHCurLTMNQBqdG8+DHhLUyBUPm9pCof7b3EK1KTzVsf0KgPQmza8GuMcdbh1lJhUxZluhMCFPzbzMU1BpeTCVU9XaNFaRTKpHdQOO/xwrXamraUFphEeZCr17t1HA82kqWI5UB+h4H9RxtImONLqMLtwSmOlgLqSDA/GnwQdolzbv/WnhtZibQhJe9NerOC10AyFFoCgTWY06LCmHZaj7Zepcz/S7AiMaeVnhAJp9+S+do5uFC3sccU/luJnC900Jf2OwqLovMb6csK4a6ZATZquLVsraLNGMdYshrWh67sWImcCt/n3qcv7qQvwG2ME98hfr/46X7dmrfQ6r6cs+vprKcjL11hB+3btZOeOHeXoY4+R3IJ8x+yzwHRKqiD45ptvpH//AbJk8RLFhKIzHMV5GsPQdp+ucU6AjKjLW6z9HHvPxg8z3zv/K8ptxJOMV2YWXHKOod9adb1d468JhXTBXegZmqmk69Tnv1vjg8YriStl52RrqjLWJ0dVeyAdY1i3rkQZdHb2hmiLMGYOvrfj++//I61b0wzdtQKkypJDF3k8rh2eGDyCgomyAGlwAggZuPGgPdpgKd2nWpNruYZ7YTpzHfeqhAl2mDWcxzO5h9nBS5cskfbt27uWjSrQXP/YWnd+7e88nNGAKVCdcLDFvn59wPoTsbWqm6OGyufMTe3fZT0k1lqqp+15PjPIfC4oqW6zuhngDuL8VStWSr++fWXRV1/LDgUF0vPcHtL9jO7Spl1bqYgqp9k3ixYt0l4NZCgBqd2+3Q/UhdSsRfO0AteAX2ejGxp8iB94GO8JHkd1uvG+L774QtOITdH1eaUJBz777rvvpEOHDmnhwbrge0sthjDWjIjP4aM0ZkI4JBIpyc5y6wV4+JYtW0rx2nXKr9Uy1J4cKUkkk2leWpvFHEsmU654U7VxJ3HMErAmJQgGFh1ayQcfLNBimcMOO0z69u0rWV5JvS/RCHQxWSZx6qmnytFHHy205aNn64MPPqjCgYnS+/W9995LNxLhM9s4Bx10kPpXuS8Eoq/rvHnzdBPzOaBjlPXzjCuuuEIeeeSRtIlsmwp8+3A0XQrUJhiYuW1AU1xMc/PbT1YnHHxcJdalbVATCH6v4+qonLZsI5ylTMFiwkF7GMeoTaM2wlnj2RHsBbDbxBBuuvFGeeett9WKZg/t2rmT7LrbrsqYKISDETFfxtq166/k9iF3qNJVXFqiv20+BiIYLIZN3xsI4jfffFPpDk8CwsTWGqCGo0ePVjff3Llzta83vMx46/7776+8Ffh3kgv22WcfPYeGUBMmTFDsKwQACLk//vGP9T3DRyl45HtDCHGCKFuBGSeMnyBXXjlQDjnsUC2CzAUapcxZCuwXe+d4hbK8Vq4+JVQwWFNtTAtbOJma1pJvvpGRhYVaiYmPE2CvCwcMUGFijJsbI8lAjkRyMgkry0e7P/TQQxXoC4RI0+6Z4IknnqggXxCWjWbj4R5AD/M/UMmPP/649OvXT8c/dOhQ+cXhh0vzZs011/v111/XVodI33xK/u2ozVew6esi3GEbUqAugmFjQPMyp+Jr9zVZH7UJBb73BQT/++5SU6rWC5pTyBa5WLOzsiWVSOg93njtdZkwfrx8/PHHUlpRJslkQiudzSW73377KfxFt27HSqIi6YD5IsveXL3+s7fh62vUj+ZdfP7558qf8HCYR4U1A4On/qRXr17Kt+BLZ511llamr1y5Mu1hoelT586dZfDgwXL66afLvvvuqzzz+uuvV4GAUo2wpzkTcO/wxC+//FKWLl2qmWjEmuwAw+svr/xFBg++RcrLSuUXv/yF3HD9DXqfOD3DacoUc655enhjBFR3qCvJ16gqNazKdLdp06bJjGnTlemTW43Eufjii6VHj56SW1CQ9vtDqK+++kozIawnqz2YCUAYLAaKbdq2batfDb7lFunZo6fsRWFOpFGZ6a6bJztb6G87cOBAufrqq2W3zp1Vc0JQ0NrwhBNO0A02Y8YMGTt2bFooaN/b4Epq1BuvLoOvSjD4y91n7GkBEaGbopVbELamZ9lahqna4VvH9pnvVkrrJZE5bho6n/taelXWROZ+5BosBmIECAf6KJQXF8uoUSNl6vRpCu191VVXyc67dJQ99thD2qNMJbCk0SJz1YXA842J1GTB1IXm2+M5mUqB8ahJEyfKws8XKrOG+Xfs2FGZN9hV8CV4Hl4RFF6ENZXp6uKhR0gUb4Cf3XrrrepyQjDsueeemixAwyV42JrVq/UeCCGaRcHYX3vtNbnn3nv0HqxL5XfxLJn94gty8003qvJubnW8K9deO0ihsXLz8lU41KYsxcrLy1NIKMwTJsSiLS0p1o5Tc2a/KA+PGSuffPKJFOTnp80gBkKzkN59+igeS2lp5GqKNBqINmLECPnggw/U39W1a1fFmec5l112mcYGDj/8cJWQQ269Tf7z3Xeuc1VkMdgCJsWO59DM/cILLpCbb75ZLQiI+tZbb8ns2bPlhhtvVIuBAp9JkyY59Eoz+YNgaPJ7OFMwVJslBGIpTDol66OjbqRFaWuUNVjb5oL4Puy3WQ0mHHxm4wsD+1z7SHAPdRO4+F7JunWSX7CD/j3h4YelcFShuhBeevllZTh5OxTo+RpnUzdU5QS5H8yL/ZUJJ97kF8omTrAqwQA9y0pKtREU/O7dd98VlGhc6LiPeAe4j3CBQ29cRTB4oM9Lix2Ptejx9dddp7zywAMPVCUZ5RmXffOWLbV6HW8I8QM8NVgQFC0+Mm6cxLLibj1ng/pbJm+/9aZceuklmsyQl0fM2PHnljvuKJdeepkce9zx0qx5C10WNa0BtRhcQMQtvLVr1qiZMnToA/Lu3Hku3pBIyLp1a6VN69ZqMrEpBgwYIH1/f4GW5vMUC6yx+WhLSF41kyAIDbojmj3CAMFAz12kIybOf5YtV9OKY86cObrZjjvuOF3k+FB/0KGDTpz4AZPE1xbLypLBN98sH330kQumxJwZDaww4yC/Ow13XIO5tIlrJVzeCChgmh1rKFcB4yoz1rBE6Vvga/BV+dzZH6wvy2iyZIiqrIaqSILiwlp2JjwZIRV6P/7nHnznWyLmf3aDVa+wyzpKQ3WLlBeXyNRpU9VqwAX8xhtvuP4KmqaiZokUF9NYaIf03rSMmfS4M2snGsH73BZDNEsw09KDx6Clz583T1FwcYcTG8B9hOeEg9gBwoL3jvWAV8OyhuB7dBLk/dMdkO9p2crBPahS33XXXZUHY0GgkCNs4MEozffdd5/2HHcw8C6W+uTjj8n/DBsWBcMrdI01a9bcPTMel5/9bA+58qqr5YADDtQ+INUdKhjcQmEhrZPly5apH59BlxaXuHTUeFzycnNkzZrVKtXQbtDk+/TtJ6k47QKz0+4kFj3Mn1gCvjMIQpCEwNc555yjAoXANMGY9+bPV+jfPNJVyyvk+eefV23muOOPk9Ko1J+B73vA/lK8dq1K0cWLF6t1QzC7/4ABSqjSsjLny3viCZ2nFfroJgmCYVvspQbzTNOKWMswY9YuwTiEAtXDvzvnd+nCMkvfzBQO//jHP3Q+bFo2sQWhTaPnu8xr7R7sB9psLlmyRDf28ccfr5sa5Wr+/Pm63rkv3yFAli9frnuJ1qHqukqJtgPFT93r/POdK4nMvPJymfLoo1JYOEIL4Yix5YOjpIOxgDvKnktfzEzx1l4MwaKu0zqtTjCgMD82Y6Y8+cQTimWFYCBWwBq7cuCV0rpNa60dmfn44/reiKcSWOZAgBB0Zi3s02Ufeenll+TUU06V/Q46UL//4rPP1EMC30RR731+bzn5lJP1XS5ftlxuG3KbjBo9Ws/Fo1JR4Zo+vfH663LlwCtUIFgcyaxbXEkozfDrB4c+KIcccqhaHFUdsUQikXLZGcQO3CkLP/9cpk+frpNWX5imzVFn4FKmGBwxhr4X/EEkTvpoZS0D37GRsBIQDARgKL7hfxY6KI8QD6IQzKZ5CZI3k/i2sbLiWXLtoGv1uWxIpCX5ui1bt4r8anFtnt6nTx/tcUvjdqAB0nUMG+kqqNNKCSc1GApk5uP7TJDNMfT+BzRbx7doWYsoLCgqpHKyXp568kldg78588z0eoRxktWByxJlBI0OP//cd95R65TzWdOWgghj5280PYKPynhFZN7cuemECvYE1cesZ+JizVu2kJNPPlkFwu23365uifIyVw/E//xmD6GITZs+3dE9QlhF4Ro9aqRkxWLy2huva7wvOsF1gdMc9yo2/nqofQ3mVTbIgfjryf8bPrTi+++laOIk+X3fftLuhx20GJF1Nv/d+dKlSxdp1ryZCgZNHUYpAeeKntuplAoPP8V/1jOz5KCDD5JddtlF3fM0UzIhsFPbnVyqamQRfvPV13L/A/fLg8OGqZKgPC8vR8pLS+Svr74qN914gwoGX2HRWrC8fDnyqKOkT59+ss/P942u8/p7eG9gPcFgpibfr12zWr5dslTdQp9+8onis+C3sgmRktW7T1+Ja22D00o47DeMnWAJWhrajxWwzZo1S7p37+40L3BdkindTPjiCG5zsHHIYIJwWo8AoRIJlbZUc0IkyxPmRZSUlmqWk2li1glLtcUoI6NBrrowqM1CAUuvNq3Y1/hXr1ylm5V1yNrBbzty5EhdP1jGuChZZzNnztQNe26PHhuMCc2ceyhIXZRs4RdjcoHFG2img1W8++67614xDZLzTTix/g855BCZMmWKtGrTWmNto0aN0nH0OOdcTaAYPWqUsFdgFNyHseGG4D4IMrTV8ePGycNjx2ycYKhrUGazvJnGfxM/tpDpOtRUUIL7FRXq///73/+uHg3cQwShf/7zn6tSTIEhPEytvClTtNZEPR0RyCHXUvuAu6hdu3ZpC4+AtqHrsn4RRhzEglFsWBvaw5vstaQrcHx5zmy5btCgyKp1LxvF/cCDDlKvCinMOfn5kqxISk2p/OuB6NkGE0V2pFIvqUGvJx9/XIi+M2lb4Gox9OunZfnUMpglwW8myoYgoGyCAkHAJNkcaFSYUkixfy74QO67914VBMQlOP/rr7/WegVStojSMxYL5JDxBJEgKp/hFkCbAyQM7Y9Diz6s7D9YDI1/d9Yyg8wgmrp6NDaWdB3PIl/6mNGjNRvuzLPOUnfj+eefry5JMj0+/PBDXdswaRe4jatGxWcwaCxomD1op1gCG1imIrJu7VqNn1Gng8uV875bvlxHz+fU/RBYJDjJM5577jnZc++91L1EFguZKS0JDIpowgdCi9Ru1j8WMYHLNKRFTrZMmjBRRo4YXq1gQFWLaSMhLwQdBEO990Omdeo04ZR89eWXikcFryJVGAGP6xDXOPFSUHD11ERCLT+C0AgAUy74TYyC+On+Bx7oEgx22EFmTJsmn376qfJJFBIXSC5VAYHAGTVmjFRUuGw1XI6kqL715hsafM6n7ixRoQIHBf6MM86Q5i13lERFwtWexUQtUT/d1SdMLEkhg1eqXfllJG2iPOo1q1artJs6dYoydybx+yj4nFm6zUQIOlvgj4mY9g8B0dqwCjh6nXeeXHP1NfLzffdVZm5SecGCBVqroMxes0nceDSQR1ZFNC7LtCCmwblsnHRP3hBjqPcmaEwX+hu2MrDqreRkUhUN1seDQ4dqNggxBhj1xZdcopYm/n4O8sbZqMTYsGDR7ljLrPHf/e53lf56YCWilGjclmptZ2fL6d27a5qhVvATcI6sYfLQcQvhgqIYivF89tlncmr301Q4kcWCZY3FwP7Cb40gIP7AvZcsXaq57IoEkJujzAKLYQJFnb4rSbeKw0lwYesgGDb3WjZlV7X+khIZMXyEKhy4JjXTKFISYOJ8hjW6Y6tWGivCotTsyg4dlKeZgovCgUvx4P/6L72eJKBmzZunXeI8hzXFZ18sXKg1DMP+Z9h6rV6JG82ZM1vuvutOWblyhVq4CCLiuVk5uS4ALfFq4wrrCQaVCtHhitVcdafGFiLzV4MY2l9W5KN//UuFA2ZM74zKZ66z9DzL4OD2VvhBwdvll1+uGpVlHVGfcMwxx2jWEtcweAiAX5fOVICHmYVgPjm+5zw+TyVctL1njx66cXawAFyU5hdcSZt7WzTc+7mFX+lXZzNxPPXUUxqcveP226VN27aa/odp/9uzztIUZ5rfvPjCC2oVoHhgzaLRYeWSSYeQgAlQiIlSYtWk/GbNmiZHGiGa3/Dhw9P556RVk2rIxiedEesDaxsfNEFp1ifaHAFGLOm99thT50CRKAwEtwGaHX+TnrhDcxdgZpwzZ8yQwoceCoJhCy5JU24tuSDzUXxfVFSkdQwEl3lXmjacl6fucSw+FAXjXRdccIFah6Td2z1ROsgwoucGdSg+9JAPoWG8EWuB9YBLFNgTV6/gcOZenvOSPPbYTLn8sktl7y57u+ESZ1ItIZ42Hcuoi1HIoapdKrFEIpWqDmsusxDGmc8uxQnpx2QtIwmmz4bKvIZzfaA8iIebiWg7n+OPYyOxqXAlcT1EJk0LoYE2Vym4kmkoAD7T3O/sHFm5YoVi1hfiO47wRRxBYgEraQtumoZw6w0yRiI1B7cOzJZsEdyUuI2sviWvoEADgdThTJ02Ld0D2bI42IBs8BYtW8qqlStVqPAd4HXkpFNcSbyLz3Bjso7RGC0QjXJEHIHjnXfe0aJOCzjD8Emz7tGzpxRNmqQxBjRFY/bz572rWEj4p3EnqLJVXq5ZfpqFEo/pc2AGk4uKZHRh4YaCIbIVgsWweVaoCYeq4E/4DosS4Y8yi7sR3ka6KowXRZh3ae8XxYGKddYY75G1YsWPCAwymwyqxTw5CAdLVTWcJLwuuB59IcIzKIYryC+QrJws5YUcztXkWsayJuoC45KOMQDExJEVgTEZSX3EVAvqWTBMK+48dFXL1/aB7PwgsUXkESJoQrapuQcbzeoZ8Ivxvfp6YzH9jv99IVMpLZzZnK50NkshO7vGqPvmWTLhLg2FAmnz3svCwWJwedzNlBl/sGCBMnLSrxEWJC3gF2b9YHUu+L//kxdeeEE3tK05W6O01SSAh/nPd/hm+Y5YANlBKDt8ZuCOGveIoK1xe7Lm//Wvf2l8gX2Axshz8grylZmoslVcLCCp4prSvVXhrPfS8jK9rss++6hgwDVL2uHYMWNk/NixQTBspUXoJ9bwSN8Fby5M3IO8X2JM/Fgcwfz5Fse1QkmzOI23+jUzNi27xoSJPUstZE3ESUpOdlywAnKtNqGGWBKeIQe3npKs6i0G16jHNymAZHUTcv5JY/j8XVWFZuY5NvBM68GP8PtVo3a+XyXqn2uEycR3SRMoysm2tFdLEwzIqltpx2zDx2QGBHUNAAYZpYpacSQxK3z5wFXDWNHuWrduLTfedJM7N5WSV155Ra0D4gwwedY9a44gIlkmQAvovoi6o7EpydgD5gBXkeV7+zDwjI/iMzKKcEuBoMnaJ6aRTCXltiFD0pb2+++/r7EFAoQ+OiwK0jeLF8sj4x5RnzL/l5WXy6OTi2SMWgzxynRVlCTd9sQY+J0RY1CO5r2wkJxR4+rNzETy+ZJ/oc/rTOO335xnbnITJiYILHHClGnT5n3MOrue31ZDk7ZuI9jtTDRhg8jgGsIDth+sptF6Q1VX5hVae25DphYeveUpgJlPAM4y1ki5xrQmPkCm0LWDBmm9DRuOynvMfAo0YQi2aalcZcPiA/YVGjY555Onjs/XsJR8U53zyXQi6EwQEOuF69AMcaEicKiPsF4KfKfP1dqiCII7FpOzf/tbLcjjO/u8aNJEGYOfOR6Tv77+huRFrieXjWSCwQC8tzytwxOaDgWCYGg67zLMpAoKwIDJoCPod8QRRyjDx72ECwgtn5RQYmNYB2+//bYGfU877TQXP0MzLytT9xKp12SYGPM3Bk5txLhx4+Tuu+9e7+kwcHOzEh8g5kBaqtUyILDwEZO6+Mtf/jIdiKzK/4vrioA1z/GB/CZOGC+jRgzXcb4WCQZsBGcpOPh8BKEeGQD8teHxh8W0fVMgCIbt+/03+dnj+iSxAa0eUEd8+1bwZrAtljFCgRLWgWXUwYQRDPiKESq4ojgsWMh55JljaRDctqZUvumPYKKqGXcTtRK4r4g3YCEALNmtWzfXktM7YOi+K4HxAiNDXY+NnXMKRwyXyRMnBMHQ5Ffx1p9gEAxbn+bhiduAAgZgR3wBBu73JfDdQ3yvnQGj2JpljsDILXnCx0GyVFUTLs6n67CJzO/M/xabIwhpNT0WTDRy+P5sv2jPFxI822Juj82cIQ/ef18QDNtgPTX1RwbB0NTf8HY+P78YqSpSmGvHfhszz3Tp+P5+g3dBUFgqtg/H7QsGBe2LWuL6AsgPIprQyAykZ1oRFsA0oTNqZKFMGj8uCIbtfI1viekHwbAlqBru2aAoYMybQZkA8LX0qrqZWe66r8X7wsJn7H4Rkj3Dgsl2TVUWQFWWgi+A7Bq7v5+9x3lTHp0sI4c/FARDg1ptTWMwQTA0jfcYZlEDBXxNPDPd0Jgv55gwsKp/3y3E33xv/c/9x/np3JnXGDP3hYdZDmbNcF/fTVVVSqRfy2PzGT/uERk7amQQDGH1b3YKBMGw2UkabtiQKOBr/Pa3X4C5HuyL15fZZ/Bcx481cbcYAwzcXEWZeegmZOxccwPVBK1gOe6+4LDx8Wzf8uEc6hhCVlJDWm1NZyxBMDSddxlm0oQpkGlFIBhcHUNhsBia8HvfVlMLgmFbUT48N1BgIygQBMNGECucuskUCIJhk0kYbhAosOUpEATDlqdxeEIlBYJgCKshUKARUCAIhkbwkprQEINgaEIvM0yl6VIgCIam+24b4syCYGiIbyWMKVAggwJBMIQlsTUpEATD1qR2eFagQD0pEARDPQkXLqsXBYJgqBfZwkWBAluXAtUJhtEKuw266usKu10tumqmBRL9H9oxbN332FieFgRDY3lTYZzbJQV8GAyD7jBsJXqcP/LwWK3IfuPNNyUvLz/dq6Eu7Ru3S4KGSdeJAkEw1IlM4aRAgW1LAaqeQXr12+tOmTJFhg0bpv2kZ82aJbTE5TDIDKuk3rYjD09vjBQIgqExvrUw5u2SAj6MNxYBTYXoI42wOPvssxVvyW+Pu10SKUx6s1AgCIbNQsZwk0CBLUOBTKwnA/vz+0RYo3lG4MciqgLj2zKjDHdtahQIgqGpvdEwnyZHgczGP/4E/WbyPshfZhP7JkeUMKEtSoEgGLYoecPNAwU2nQJVCQZzGXF33Eo+fLiP6LrpTw932B4pEATD9vjWw5wbLQUyu7yZQPAb/JhLid8mJBrthMPAtwkFgmDYJmQPDw0UqBsFTBAYk/fjBplCAihuazIUXEl1o284q2oK/D84SuC2e6EJjwAAAABJRU5ErkJggg==;" vertex="1" parent="1">
          <mxGeometry x="80" y="87" width="390" height="264" as="geometry" />
        </mxCell>
      </root>
    </mxGraphModel>
  </diagram>
</mxfile>
